<?xml version="1.0" encoding="UTF-8"?>
<svg version="1.1" xmlns="http://www.w3.org/2000/svg" width="3662" height="3662">
<path d="M0 0 C0.33 0 0.66 0 1 0 C1.05945801 0.67724121 1.11891602 1.35448242 1.18017578 2.05224609 C8.74226108 86.79495149 21.25483726 172.86685258 92.26318359 317.84082031 C106.38163087 335.92301419 117.06421139 356.44070957 127.0390625 377.02929688 C128.02104646 379.04316235 129.02545536 381.0448103 130.03125 383.046875 C156.58314892 436.65050198 172.91044912 496.5721861 179 556 C179.08613556 556.82704437 179.17227112 557.65408875 179.26101685 558.50619507 C180.9486155 575.15983978 181.36375356 591.70608963 181.3125 608.4375 C181.31034485 609.70958313 181.3081897 610.98166626 181.30596924 612.29229736 C181.25244738 632.02886981 180.76442062 651.43470218 178 671 C177.90054077 671.70481506 177.80108154 672.40963013 177.6986084 673.13580322 C173.18370931 704.80708093 166.13600048 735.62674065 156 766 C155.64711914 767.05993164 155.29423828 768.11986328 154.93066406 769.21191406 C142.67275987 805.57436424 125.85941031 840.2123243 106 873 C105.4548877 873.90830566 104.90977539 874.81661133 104.34814453 875.75244141 C93.00652259 894.62334677 80.41169164 912.54825457 67 930 C66.5349707 930.60537598 66.06994141 931.21075195 65.59082031 931.83447266 C59.78525697 939.36464177 53.78518969 946.70034596 47.60546875 953.92578125 C45.24135813 956.69699155 42.96156042 959.52927189 40.6875 962.375 C35.85194143 968.32178209 30.60931528 973.85918479 25.3515625 979.4296875 C22.64031408 982.30442829 19.99277873 985.22703024 17.375 988.1875 C13.87031687 992.10139284 10.2522286 995.886419 6.5625 999.625 C6.04155762 1000.15891357 5.52061523 1000.69282715 4.98388672 1001.24291992 C3.69476783 1002.53522865 2.35140984 1003.7729789 1 1005 C0.34 1005 -0.32 1005 -1 1005 C-1.08975098 1004.20754883 -1.17950195 1003.41509766 -1.27197266 1002.59863281 C-11.97584915 909.9027958 -51.47303977 824.47216964 -111 753 C-111.41862305 752.49500977 -111.83724609 751.99001953 -112.26855469 751.46972656 C-123.15566202 738.35516065 -134.78725104 726.04170035 -146.85595703 714.01367188 C-148.76582994 712.10921495 -150.67022149 710.19939181 -152.57421875 708.2890625 C-158.54590526 702.31378718 -164.52436387 696.43437478 -171 691 C-172.11860949 690.02767518 -173.23582248 689.0537412 -174.3515625 688.078125 C-181.75305042 681.66640994 -189.28005731 675.46108907 -197.04931641 669.5 C-198.38080647 668.4761358 -199.70845381 667.44725968 -201.03271484 666.4140625 C-222.71577909 649.51585007 -245.88009751 634.04825294 -269.70166016 620.32568359 C-272.09442114 618.94553784 -274.47500993 617.54577413 -276.85546875 616.14453125 C-297.47635594 604.09149157 -318.73288265 593.18752634 -340.55102539 583.47485352 C-371.57663811 569.47845844 -398.60875371 543.01711229 -411.49609375 511.3203125 C-421.18016871 484.13593592 -419.78316352 455.65124904 -407.81054688 429.39111328 C-402.26201093 417.82329456 -395.8990197 407.10249828 -388 397 C-387.26136719 396.05125 -386.52273438 395.1025 -385.76171875 394.125 C-377.42418483 383.69938032 -368.22143627 374.13686342 -358.8125 364.6875 C-358.06427979 363.93460693 -357.31605957 363.18171387 -356.54516602 362.40600586 C-351.85874324 357.73302456 -347.03484271 353.29398194 -342 349 C-341.44014404 348.51845459 -340.88028809 348.03690918 -340.3034668 347.54077148 C-338.68420367 346.14896174 -337.06132943 344.76147825 -335.4375 343.375 C-330.9978562 339.58032903 -326.57713766 335.76541952 -322.17504883 331.92724609 C-316.66214152 327.12399014 -311.11513683 322.40232459 -305.37109375 317.875 C-302.82644447 315.86275675 -300.31821362 313.81049871 -297.8125 311.75 C-281.21125419 298.14165484 -264.26492348 284.96662087 -247.31445312 271.79833984 C-243.54184368 268.86700639 -239.77097422 265.93343657 -236 263 C-231.45402154 259.46368851 -226.90762452 255.92792157 -222.359375 252.39453125 C-214.33987844 246.16325717 -206.33041196 239.91997625 -198.3515625 233.63671875 C-196.1000418 231.86372825 -193.84463236 230.09587245 -191.5859375 228.33203125 C-183.24520868 221.81255619 -175.00707287 215.17391164 -166.80859375 208.4765625 C-165.2076452 207.16952459 -163.60402024 205.86576644 -162 204.5625 C-156.55783643 200.13283197 -151.18157324 195.63231063 -145.83740234 191.08544922 C-142.40920506 188.1738714 -138.94007727 185.32222054 -135.4375 182.5 C-130.35960561 178.36958445 -125.55436147 173.99168232 -120.7578125 169.54296875 C-118.59659452 167.55011761 -116.41653031 165.60292215 -114.1875 163.6875 C-103.20429948 154.10783221 -92.81310839 143.91436265 -82.5 133.625 C-81.98171631 133.1093045 -81.46343262 132.59360901 -80.92944336 132.06228638 C-75.06584549 126.22180005 -69.36395483 120.30878217 -64 114 C-63.07486277 112.9514048 -62.14785709 111.90445432 -61.21875 110.859375 C-32.68062096 78.38944169 -11.39260611 41.79114644 0 0 Z " fill="#0033A0" transform="translate(2314,63)"/>
<path d="M0 0 C0.66 0 1.32 0 2 0 C2.4021875 1.70929687 2.4021875 1.70929687 2.8125 3.453125 C7.24765937 21.62660297 14.17123388 38.53070348 23 55 C23.31404785 55.58942383 23.6280957 56.17884766 23.95166016 56.78613281 C34.56001838 76.50855954 48.42145183 94.0934046 63 111 C63.61488281 111.71671875 64.22976563 112.4334375 64.86328125 113.171875 C73.55696943 123.21422602 82.66378564 132.83127943 92.0715332 142.2019043 C93.70056572 143.82552229 95.32410728 145.45449603 96.94726562 147.08398438 C101.9140137 152.05389192 106.91299943 156.93691028 112.25854492 161.50366211 C115.0209972 163.87728752 117.65670648 166.38359477 120.3125 168.875 C125.18585549 173.41348524 130.20303977 177.69348797 135.3984375 181.86328125 C137.94986729 183.95882494 140.38326773 186.13963155 142.8125 188.375 C147.24437339 192.41417575 151.88081821 196.10313508 156.61645508 199.77294922 C160.664353 202.92016118 164.60716562 206.1633697 168.5 209.5 C174.0187926 214.22166158 179.68092037 218.72876578 185.41015625 223.19140625 C189.07491971 226.04822186 192.69356559 228.96051466 196.3125 231.875 C202.35180129 236.72961454 208.48565709 241.44909939 214.65454102 246.13745117 C220.04113549 250.24108469 225.34088068 254.44244267 230.61499023 258.68920898 C234.56135542 261.86237445 238.54109287 264.98504213 242.5625 268.0625 C253.94945776 276.77743424 265.16525248 285.70557635 276.35009766 294.67773438 C278.54273522 296.43495915 280.74047371 298.18576715 282.9375 299.9375 C292.85810163 307.88057306 302.73783708 315.86815697 312.41064453 324.11206055 C315.79930446 326.99722922 319.22842085 329.82479307 322.6875 332.625 C327.13903808 336.24834495 331.42382455 340.01963872 335.66796875 343.8828125 C337.75823889 345.78051169 339.86986115 347.64733415 342 349.5 C358.90248568 364.25203649 375.9366189 379.64743144 389 398 C389.76957031 399.04800781 390.53914063 400.09601563 391.33203125 401.17578125 C410.42809889 427.81918738 422.79949751 458.61250887 417.78125 491.8125 C415.5095592 504.83847173 410.37334469 516.49301358 404 528 C403.46761719 528.96421875 402.93523438 529.9284375 402.38671875 530.921875 C388.23782835 554.65549761 364.9111312 573.67961195 340 585 C335.51834496 587.05710475 331.03945668 589.12019174 326.5625 591.1875 C325.95445526 591.46811279 325.34641052 591.74872559 324.71994019 592.0378418 C304.15003695 601.54621515 284.42571598 612.33930599 265 624 C263.64261719 624.81404297 263.64261719 624.81404297 262.2578125 625.64453125 C248.49859415 633.93637691 235.16120505 642.79135344 222 652 C221.18869629 652.56750977 220.37739258 653.13501953 219.54150391 653.71972656 C209.27701627 660.93558722 199.41119154 668.53444333 189.75732422 676.546875 C187.23066633 678.63615921 184.67532093 680.68971268 182.125 682.75 C177.74668396 686.33404881 173.52526113 690.06400252 169.34375 693.875 C167.19307289 695.82494724 165.01175029 697.73026129 162.8125 699.625 C159.68874463 702.34185337 156.77043478 705.20265246 153.875 708.15942383 C152.06815096 709.93310025 150.20040949 711.57033045 148.26953125 713.20703125 C143.9609349 716.95514368 140.06448941 721.00006443 136.1875 725.1875 C135.49390381 725.9314502 134.80030762 726.67540039 134.08569336 727.44189453 C132.69613859 728.93423035 131.3084755 730.42833013 129.92285156 731.92431641 C128.23194646 733.74961798 126.53513269 735.56914152 124.8359375 737.38671875 C118.94710577 743.7128099 113.39932094 750.25307995 108 757 C107.07759625 758.13083957 106.15437804 759.26101515 105.23046875 760.390625 C81.46720132 789.57185427 61.93805886 821.45413525 45 855 C44.52530273 855.93859863 44.05060547 856.87719727 43.56152344 857.84423828 C20.34164192 904.11550873 6.06968908 954.53918343 1 1006 C-4.44305294 1001.45934794 -9.50260354 996.64921611 -14.5 991.625 C-15.22058594 990.90828125 -15.94117188 990.1915625 -16.68359375 989.453125 C-20.77339985 985.35592323 -24.68881219 981.16275166 -28.46777344 976.77734375 C-30.39494593 974.54187279 -32.38362865 972.36580085 -34.375 970.1875 C-38.19597138 965.94911157 -41.84247331 961.60120897 -45.4296875 957.1640625 C-47.35180461 954.7871519 -49.29965269 952.43324057 -51.2578125 950.0859375 C-110.31368385 879.19093838 -153.44239667 795.55296565 -180 646 C-180.08677002 644.91452881 -180.08677002 644.91452881 -180.17529297 643.80712891 C-187.63953532 547.12636377 -164.02183996 445.0836709 -90.5 317 C-39.29189546 253.95410605 -21.20771528 162.86824722 0 0 Z " fill="#00ACC1" transform="translate(1356,62)"/>
<path d="M0 0 C4.84389412 3.24104684 9.69237141 6.47487069 14.5509491 9.69386292 C23.63781696 15.71795185 32.65828704 21.81025622 41.5743866 28.08448792 C53.1236855 36.19865372 64.91077818 43.94924547 76.6993866 51.70948792 C77.64060364 52.32923492 78.58182068 52.94898193 79.55155945 53.58750916 C102.59944475 68.79039653 102.59944475 68.79039653 125.9493866 83.52198792 C127.2787323 84.34171082 127.2787323 84.34171082 128.63493347 85.17799377 C131.19594353 86.75451707 133.75934575 88.32703295 136.3243866 89.89698792 C137.34097351 90.5193634 137.34097351 90.5193634 138.37809753 91.15431213 C142.67072509 93.7743568 146.9882444 96.3496624 151.3243866 98.89698792 C152.064953 99.33301331 152.80551941 99.7690387 153.56852722 100.21827698 C168.5363474 108.99525059 183.83301993 117.08531248 199.3243866 124.89698792 C200.38737976 125.43388245 201.45037292 125.97077698 202.545578 126.52394104 C243.72383731 147.18026132 288.35356634 162.53606712 334.8243866 162.02198792 C336.43766217 162.01191915 338.05094397 162.00280031 339.66423035 161.99464417 C343.55110765 161.97298244 347.43767466 161.93867707 351.3243866 161.89698792 C348.81005468 164.85518351 346.17970748 165.97176225 342.60173035 167.39308167 C341.43674011 167.86294495 340.27174988 168.33280823 339.07145691 168.81690979 C338.451297 169.06368469 337.83113708 169.31045959 337.19218445 169.56471252 C333.88786388 170.88242868 330.59585264 172.22999354 327.30485535 173.58058167 C326.63274017 173.85639069 325.960625 174.13219971 325.2681427 174.41636658 C314.45607282 178.87938326 303.89372869 183.89252125 293.3243866 188.89698792 C292.2833075 189.38667053 291.24222839 189.87635315 290.16960144 190.38087463 C266.93544384 201.31820197 244.28544242 213.0544871 222.21354675 226.18702698 C219.41060809 227.84595738 216.59502479 229.48066487 213.77360535 231.10792542 C180.53576034 250.35041944 149.13743087 272.84292081 120.7306366 298.71339417 C119.07658454 300.2143927 117.4090699 301.70064701 115.7306366 303.17433167 C111.24014733 307.13056092 107.06674904 311.11708142 103.2150116 315.69776917 C100.93829778 318.34609537 98.53514439 320.85826074 96.1368866 323.39698792 C87.78704643 332.38467314 80.67647095 342.36754522 73.8243866 352.52198792 C62.40278755 369.17250573 47.64928378 383.63912634 33.4493866 397.89698792 C32.6649115 398.68613586 31.8804364 399.47528381 31.07218933 400.28834534 C26.31699672 405.03042852 21.42223783 409.5277749 16.3243866 413.89698792 C15.13299433 414.94239676 13.94286196 415.98924342 12.7540741 417.03761292 C4.48919679 424.28362737 -3.94386802 431.22267345 -12.6756134 437.89698792 C-13.77534485 438.74366028 -13.77534485 438.74366028 -14.89729309 439.60743713 C-59.7916439 474.1080318 -109.28836144 501.14115823 -162.6756134 519.89698792 C-163.57086731 520.21860901 -164.46612122 520.5402301 -165.38850403 520.87159729 C-247.45838402 550.32130939 -338.52923057 553.55709504 -584.06770325 483.60206604 C-591.33810521 480.16611481 -598.53835349 476.60113546 -605.6756134 472.89698792 C-604.10946031 469.76468173 -600.96507442 469.17352873 -597.8631134 467.89698792 C-562.60649313 452.83943146 -531.01123988 431.4234953 -501.6756134 406.89698792 C-500.89347473 406.24440002 -500.89347473 406.24440002 -500.09553528 405.57862854 C-483.66809717 391.82767976 -467.21253766 377.19480793 -453.3318634 360.83058167 C-451.41575763 358.59361856 -449.42048484 356.43895214 -447.4256134 354.27198792 C-442.39112274 348.68565595 -437.79595868 342.80531223 -433.20295715 336.85694885 C-431.62877161 334.83687828 -430.03007183 332.83839083 -428.4256134 330.84230042 C-367.3412494 254.39903005 -332.34759319 158.97150085 -308.9490509 17.77589417 C-305.21575454 -13.24069027 -291.46956481 -41.81598485 -269.6756134 -64.10301208 C-268.625672 -65.22836365 -268.625672 -65.22836365 -267.55451965 -66.37644958 C-192.93481563 -144.74965984 -68.3525977 -45.72771103 0 0 Z " fill="#0033A0" transform="translate(3310.6756134033203,1582.103012084961)"/>
<path d="M0 0 C1.61040045 1.3858208 3.19169991 2.80584291 4.75 4.25 C5.49926758 4.93787598 5.49926758 4.93787598 6.26367188 5.63964844 C36.40348683 33.59043722 47.1610061 69.79059409 51.90211487 109.38145447 C56.86652011 150.74399621 65.89814443 191.62301189 78.75 231.25 C78.95776062 231.89177185 79.16552124 232.5335437 79.37957764 233.19476318 C101.50813152 301.38161062 134.66237568 365.14032851 180.75 420.25 C181.19037598 420.77674316 181.63075195 421.30348633 182.08447266 421.84619141 C192.71147008 434.51357234 203.96169691 446.53300199 215.625 458.25 C216.65886841 459.29087769 216.65886841 459.29087769 217.71362305 460.3527832 C222.22985887 464.85488711 226.91305442 469.09656298 231.75 473.25 C232.83282684 474.1996144 233.91490193 475.15008695 234.99609375 476.1015625 C243.939896 483.90304029 253.2342102 491.16166456 262.75 498.25 C263.46671875 498.7877002 264.1834375 499.32540039 264.921875 499.87939453 C287.46342567 516.73994738 311.80481993 531.04000955 337.4140625 542.7265625 C339.88832059 543.85649301 342.33035459 545.00947113 344.75 546.25 C342.54972434 548.66326165 340.43522661 550.10000916 337.5234375 551.5625 C336.67031982 551.99224121 335.81720215 552.42198242 334.93823242 552.86474609 C333.54568237 553.55044678 333.54568237 553.55044678 332.125 554.25 C331.14571533 554.7342041 330.16643066 555.2184082 329.1574707 555.71728516 C286.91125982 576.39715495 242.32280861 592.65522197 196.75 604.25 C195.69828613 604.52005859 194.64657227 604.79011719 193.56298828 605.06835938 C156.99732258 614.33417799 118.37736899 620.30396866 80.63671875 620.453125 C79.43614838 620.46018463 78.235578 620.46724426 76.99862671 620.47451782 C73.14487651 620.49202709 69.29128869 620.49850286 65.4375 620.5 C64.44996798 620.50044186 64.44996798 620.50044186 63.44248581 620.50089264 C42.71718394 620.50238939 22.30054167 620.16574453 1.75 617.25 C1.04625244 617.15054077 0.34250488 617.05108154 -0.38256836 616.9486084 C-49.97356779 609.87547201 -97.70907915 596.2058479 -143.25 575.25 C-144.22710937 574.80398438 -145.20421875 574.35796875 -146.2109375 573.8984375 C-187.70227139 554.87694127 -226.28547026 529.52708796 -261.25 500.25 C-261.85682617 499.74227051 -262.46365234 499.23454102 -263.08886719 498.71142578 C-264.8769399 497.209464 -266.65884456 495.7005984 -268.4375 494.1875 C-268.93483643 493.76581543 -269.43217285 493.34413086 -269.94458008 492.90966797 C-280.47141082 483.86372186 -290.46212961 474.22456459 -300.27197266 464.41333008 C-302.00795956 462.67955057 -303.7518511 460.95398462 -305.49609375 459.22851562 C-312.21453965 452.54326468 -318.36612052 445.68931942 -324.25 438.25 C-325.7037217 436.51695451 -327.1615637 434.78735004 -328.625 433.0625 C-332.23869328 428.66458509 -335.45426186 424.09310753 -338.625 419.375 C-343.28506792 412.45369351 -348.33015154 406.077084 -353.86035156 399.82836914 C-354.83519706 398.7211351 -355.79986547 397.60489697 -356.75683594 396.48217773 C-361.45926624 390.99809717 -366.46558805 385.84823401 -371.57324219 380.74145508 C-372.98919947 379.32331716 -374.39698289 377.89703335 -375.8046875 376.47070312 C-381.97555347 370.28694537 -388.42844164 364.69859268 -395.25 359.25 C-396.33980845 358.32659853 -397.42443876 357.39698909 -398.5 356.45703125 C-433.08327061 326.34404135 -474.02695733 302.9326859 -514.25 281.25 C-515.15572754 280.75918945 -516.06145508 280.26837891 -516.99462891 279.76269531 C-547.40262243 263.31725217 -579.24001224 249.26590314 -611.25 236.25 C-611.25 235.92 -611.25 235.59 -611.25 235.25 C-610.44183838 235.26571045 -609.63367676 235.2814209 -608.80102539 235.29760742 C-559.73093253 236.11977865 -515.7916974 224.36654916 -471.25 204.25 C-470.42226074 203.88165039 -469.59452148 203.51330078 -468.74169922 203.13378906 C-457.23571233 198.00500604 -446.2214593 192.02294362 -435.21826172 185.90039062 C-432.18226558 184.21233882 -429.14020682 182.53557947 -426.09765625 180.859375 C-411.91883448 173.01774705 -398.00408148 164.81348825 -384.25 156.25 C-383.43756836 155.74694336 -382.62513672 155.24388672 -381.78808594 154.72558594 C-363.41784588 143.32207361 -345.52832072 131.16153199 -327.56066895 119.13935852 C-322.02857592 115.43786372 -316.49012947 111.74625327 -310.94604492 108.06274414 C-302.69540721 102.57940106 -294.47341586 97.05501348 -286.265625 91.5078125 C-265.69109173 77.60330396 -245.10556239 63.73054232 -224.25 50.25 C-223.29544922 49.63205566 -222.34089844 49.01411133 -221.35742188 48.37744141 C-67.09892226 -51.27268211 -67.09892226 -51.27268211 0 0 Z " fill="#00ACC1" transform="translate(613.25,1499.75)"/>
<path d="M0 0 C1.36146149 0.00090637 1.36146149 0.00090637 2.75042725 0.00183105 C92.54497302 0.162567 181.17073422 22.54424747 258.75 68.1875 C259.96212158 68.8990625 259.96212158 68.8990625 261.19873047 69.625 C284.4240904 83.33911482 306.51066127 99.07833238 326.90234375 116.7421875 C329.6994368 119.14408085 332.5564339 121.44995557 335.4375 123.75 C340.07119033 127.51487339 344.25243458 131.58769247 348.421875 135.85546875 C350.4461537 137.8831439 352.50775667 139.76867387 354.6875 141.625 C361.90434762 147.81921739 368.5830615 154.67195676 374.75 161.90625 C376.91891835 164.38017249 379.15827129 166.77633121 381.41064453 169.17407227 C387.47908444 175.63745337 393.21073854 182.26112664 398.75 189.1875 C399.73128222 190.37908109 400.71448045 191.56908596 401.69921875 192.7578125 C429.05280563 225.85989057 452.36442904 262.44068095 472.75 300.1875 C473.21374023 301.03731445 473.67748047 301.88712891 474.15527344 302.76269531 C475.59212269 305.39931849 477.01666434 308.04221852 478.4375 310.6875 C479.10809448 311.91799072 479.10809448 311.91799072 479.79223633 313.17333984 C480.19466553 313.9308252 480.59709473 314.68831055 481.01171875 315.46875 C481.37225342 316.13970703 481.73278809 316.81066406 482.10424805 317.50195312 C482.42389526 318.33629883 482.42389526 318.33629883 482.75 319.1875 C482.42 319.8475 482.09 320.5075 481.75 321.1875 C481.14341553 321.05174561 480.53683105 320.91599121 479.91186523 320.77612305 C458.68191905 316.07140929 437.81851993 313.21197942 416.125 312 C415.3580481 311.95702789 414.59109619 311.91405579 413.80090332 311.86978149 C338.34734583 307.7459122 261.66227689 323.56611509 192.75 354.1875 C191.70150879 354.65269043 190.65301758 355.11788086 189.57275391 355.59716797 C139.14372218 378.12128257 91.8259249 407.6545557 49.82421875 443.58203125 C47.05300845 445.94614187 44.22072811 448.22593958 41.375 450.5 C36.10173913 454.785007 31.15618061 459.38054013 26.22705078 464.05200195 C23.1975754 466.9209291 20.14131884 469.73213984 16.97753906 472.45288086 C12.97438723 475.94652389 9.1834158 479.60892616 5.43359375 483.37109375 C4.77343765 484.03029312 4.11328156 484.68949249 3.43312073 485.3686676 C2.04964494 486.75146835 0.66740917 488.13551076 -0.71362305 489.52075195 C-2.80731669 491.61980343 -4.90629874 493.7134594 -7.00585938 495.80664062 C-8.35969571 497.16113786 -9.71322175 498.51594531 -11.06640625 499.87109375 C-11.99169884 500.79334999 -11.99169884 500.79334999 -12.9356842 501.73423767 C-18.34385843 507.17109713 -23.38136736 512.88530517 -28.23046875 518.82421875 C-31.30728178 522.41332573 -34.76020286 525.21123849 -38.5625 528 C-39.25472656 528.51135498 -39.94695312 529.02270996 -40.66015625 529.54956055 C-57.96323896 542.10090865 -76.53147059 550.97285193 -97.25 556.1875 C-98.21679688 556.435 -99.18359375 556.6825 -100.1796875 556.9375 C-125.52106694 562.22613571 -152.11507546 556.6868655 -174.00390625 543.3203125 C-179.09212125 539.97715319 -183.6900661 536.21177902 -188.25 532.1875 C-189.1265625 531.43210937 -190.003125 530.67671875 -190.90625 529.8984375 C-196.13346106 525.31675552 -200.87820033 520.58905976 -205.25 515.1875 C-205.98605469 514.28902344 -206.72210937 513.39054687 -207.48046875 512.46484375 C-252.56420242 455.76971921 -273.57040906 377.62747687 -297.83984375 310.40625 C-298.19851028 309.41287628 -298.55717682 308.41950256 -298.92671204 307.39602661 C-300.80076566 302.20477051 -302.67321188 297.01294193 -304.54345703 291.8203125 C-352.23836592 155.35527731 -352.23836592 155.35527731 -473.25 10.1875 C-472.92 9.5275 -472.59 8.8675 -472.25 8.1875 C-471.17258545 8.44853516 -470.0951709 8.70957031 -468.98510742 8.97851562 C-381.80493377 30.01834605 -288.97273567 45.56004936 -143.25 20.1875 C-97.86321416 4.49945091 -47.79757255 -0.05965996 0 0 Z " fill="#0033A0" transform="translate(772.25,815.8125)"/>
<path d="M0 0 C37.70108665 13.16948324 77.40551082 16.72507882 117.1171875 16.59375 C118.85841888 16.59101578 118.85841888 16.59101578 120.63482666 16.58822632 C187.50500088 16.41325109 255.2298337 6.55894963 319.97558594 -10.08007812 C320.89500977 -10.31275391 321.81443359 -10.54542969 322.76171875 -10.78515625 C323.5503833 -10.99084229 324.33904785 -11.19652832 325.15161133 -11.40844727 C327.0546875 -11.71875 327.0546875 -11.71875 329.0546875 -10.71875 C328.49523438 -10.32945312 327.93578125 -9.94015625 327.359375 -9.5390625 C325.62367309 -8.32797789 323.89092265 -7.1126588 322.16015625 -5.89453125 C320.02504725 -4.39861212 317.88394769 -2.91792507 315.73046875 -1.44921875 C305.17225435 5.82773111 296.10675263 14.21456117 287.0546875 23.28125 C286.29929687 24.00183594 285.54390625 24.72242188 284.765625 25.46484375 C278.2946321 31.70859442 272.77821841 38.41046696 267.35546875 45.56591797 C266.14951821 47.15619735 264.93075702 48.73673997 263.7109375 50.31640625 C245.96475792 73.53015876 232.1331072 99.2285254 219.0546875 125.28125 C218.59030273 126.20067383 218.12591797 127.12009766 217.64746094 128.06738281 C191.93670571 179.2795533 173.37205044 234.09524585 153.85011292 287.85522461 C82.4264283 484.54036059 82.4264283 484.54036059 16.38671875 529.37109375 C-7.3476155 540.33582501 -35.36671403 540.37143512 -59.9453125 532.28125 C-60.61626953 532.06194824 -61.28722656 531.84264648 -61.97851562 531.61669922 C-84.80847788 523.8654277 -107.16942024 510.10372154 -122.8671875 491.68359375 C-131.8728067 481.27296253 -141.60302473 471.52096328 -151.3203125 461.78125 C-151.836008 461.26296631 -152.35170349 460.74468262 -152.88302612 460.21069336 C-158.18063929 454.89211687 -163.50347945 449.65466211 -169.2109375 444.77050781 C-171.79385895 442.55262762 -174.266645 440.22669413 -176.7578125 437.90625 C-181.40435378 433.61373792 -186.1863049 429.54786969 -191.1171875 425.58203125 C-193.62347826 423.54307372 -196.08125568 421.457499 -198.52832031 419.34814453 C-206.38065113 412.59743408 -214.59271949 406.39660914 -222.9453125 400.28125 C-223.67975586 399.74177734 -224.41419922 399.20230469 -225.17089844 398.64648438 C-294.38719458 347.88985532 -373.09527915 311.15812854 -536.8203125 290.03125 C-537.82643585 290.03024292 -538.8325592 290.02923584 -539.86917114 290.02819824 C-565.04897625 290.04512969 -589.66313455 291.93671733 -614.41308594 296.78955078 C-618.91571385 297.66385589 -623.43132422 298.4680011 -627.9453125 299.28125 C-620.92138062 281.05583373 -610.12510525 263.88955178 -599.9453125 247.28125 C-599.45208496 246.47526367 -598.95885742 245.66927734 -598.45068359 244.83886719 C-580.56157609 215.7504019 -560.62571972 187.87801085 -538.38085938 161.95947266 C-536.86863026 160.19160481 -535.36727528 158.41489683 -533.8671875 156.63671875 C-529.00681252 150.89291617 -524.13060674 145.29674994 -518.72265625 140.0546875 C-516.94663819 138.28257277 -515.32096447 136.44148853 -513.6953125 134.53125 C-507.09908615 126.87841989 -499.81851316 119.72396218 -492.125 113.1796875 C-489.80805129 111.16169991 -487.56391895 109.0786292 -485.31933594 106.98095703 C-479.06422254 101.14055729 -472.66483954 95.58791028 -465.9453125 90.28125 C-465.29965332 89.76836426 -464.65399414 89.25547852 -463.98876953 88.72705078 C-388.74049259 29.04857067 -298.9150048 -8.05858487 0 0 Z " fill="#00ACC1" transform="translate(3037.9453125,844.71875)"/>
<path d="M0 0 C0.66 0 1.32 0 2 0 C4.70095766 16.1145561 6.64388895 32.23915602 8.1875 48.5 C8.27181274 49.37557556 8.35612549 50.25115112 8.44299316 51.15325928 C10.45846124 72.22984652 11.20734807 93.13920869 11.1875 114.3125 C11.18659363 116.10305313 11.18659363 116.10305313 11.18566895 117.92977905 C11.16082296 136.0353851 10.86801769 153.97676351 9 172 C8.86577637 173.30517578 8.73155273 174.61035156 8.59326172 175.95507812 C-0.97029262 266.9708985 -30.73715075 353.92774528 -106 454 C-106.48936035 454.58990723 -106.9787207 455.17981445 -107.48291016 455.78759766 C-121.40140557 472.4945023 -136.39066576 489.19401243 -153 503.27734375 C-155.43389131 505.37372279 -157.77134425 507.5639738 -160.125 509.75 C-165.3328468 514.49875287 -170.77699603 518.85233192 -176.3515625 523.16015625 C-178.77063768 525.03096799 -181.15852474 526.93228548 -183.5234375 528.87109375 C-205.39500454 546.77580292 -229.34610504 562.22517005 -254 576 C-254.9070166 576.51030762 -255.8140332 577.02061523 -256.74853516 577.54638672 C-281.01150989 591.14804411 -305.84035466 602.74515337 -332.4375 610.9375 C-380.71893799 625.83045516 -423.65506267 654.59258495 -462.27636719 686.57617188 C-464.71230065 688.58840473 -467.17042475 690.5730775 -469.625 692.5625 C-479.52928921 700.69288667 -489.18508202 709.03757542 -498.49902344 717.84057617 C-501.73338955 720.89702484 -505.00725317 723.88770201 -508.34765625 726.828125 C-515.60548597 733.34034387 -522.43964721 740.29064209 -529.32348633 747.19311523 C-531.6891419 749.56414563 -534.06011514 751.92976422 -536.43164062 754.29492188 C-537.95865417 755.82259604 -539.48535757 757.35058028 -541.01171875 758.87890625 C-541.70980148 759.57496475 -542.40788422 760.27102325 -543.12712097 760.98817444 C-547.05380965 764.93339459 -550.80894275 768.97504244 -554.4360199 773.19790649 C-556.99712732 776.14893832 -559.69411913 778.97073344 -562.375 781.8125 C-567.08975443 786.8460745 -571.55116794 792.00754525 -575.8671875 797.390625 C-580.30502238 802.82006401 -584.99268601 808.08716363 -590 813 C-589.47843645 809.00543685 -588.52383948 805.46120638 -587.08325195 801.70166016 C-560.6072455 732.51348998 -576.35351914 652.62875886 -593 583 C-593.20564575 582.13959106 -593.4112915 581.27918213 -593.62316895 580.3927002 C-604.59741647 534.69263036 -617.84009752 489.51976778 -630.984375 444.40527344 C-687.11743154 251.67333304 -687.11743154 251.67333304 -656 193.12109375 C-642.34285875 168.73600684 -620.68302345 152.20557609 -594 144 C-563.12996796 135.780414 -535.26599592 137.02284401 -504.30227661 143.34567261 C-503.40846283 143.52808502 -502.51464905 143.71049744 -501.59375 143.8984375 C-500.70195038 144.08076935 -499.81015076 144.2631012 -498.8913269 144.45095825 C-473.59698748 149.55666377 -447.71453226 152.1394505 -422 154 C-421.33620331 154.04805786 -420.67240662 154.09611572 -419.98849487 154.14562988 C-406.27197939 155.10580017 -392.55868674 155.24273945 -378.8125 155.25 C-377.65348175 155.25067474 -376.4944635 155.25134949 -375.30032349 155.25204468 C-354.07735514 155.23257724 -333.09395301 154.33869726 -312 152 C-311.25202148 151.9175 -310.50404297 151.835 -309.73339844 151.75 C-236.94510767 143.60322617 -166.2132742 121.21557197 -103 84 C-102.1759668 83.51499023 -101.35193359 83.02998047 -100.50292969 82.53027344 C-85.3748207 73.56982575 -70.92684916 63.73527956 -57 53 C-56.43539062 52.566875 -55.87078125 52.13375 -55.2890625 51.6875 C-48.4644678 46.44239665 -41.80456534 41.11039853 -35.4765625 35.265625 C-33.47420318 33.43381363 -31.44236624 31.66429095 -29.3828125 29.8984375 C-24.10582075 25.29324218 -19.19005176 20.33589586 -14.25 15.375 C-13.31800781 14.446875 -12.38601563 13.51875 -11.42578125 12.5625 C-10.52730469 11.66273438 -9.62882812 10.76296875 -8.703125 9.8359375 C-7.89520508 9.02688965 -7.08728516 8.2178418 -6.25488281 7.38427734 C-3.92896388 5.00342555 -3.92896388 5.00342555 -1.83105469 2.19775391 C-1.22680664 1.47249512 -0.62255859 0.74723633 0 0 Z " fill="#00ACC1" transform="translate(1765,2728)"/>
<path d="M0 0 C-1.37722867 4.67831802 -3.40214115 8.64519431 -5.875 12.8125 C-33.72771862 61.35663 -48.06838622 115.97181928 -56 171 C-56.27118652 172.83087158 -56.27118652 172.83087158 -56.54785156 174.69873047 C-62.18469067 214.68891014 -61.47094955 259.03406737 -56 299 C-55.75056641 300.94471191 -55.75056641 300.94471191 -55.49609375 302.92871094 C-46.04684514 376.31225853 -21.63619898 446.76259787 26.55395508 539.55102539 C35.91285354 554.84862138 41.39790991 572.27998153 44 590 C44.18046875 591.17046875 44.3609375 592.3409375 44.546875 593.546875 C47.44600351 617.68420712 45.1072383 641.32102947 34 663 C33.47664063 664.05574219 32.95328125 665.11148438 32.4140625 666.19921875 C27.87738344 674.66399796 21.73309826 681.26239649 15 688 C14.22011719 688.80308594 13.44023438 689.60617187 12.63671875 690.43359375 C-21.97360778 723.96795158 -76.50404182 729.01607071 -122 733 C-122.786026 733.0691864 -123.572052 733.1383728 -124.38189697 733.20965576 C-169.25718838 737.11495514 -214.39735842 738.19053284 -259.40234375 739.75 C-388.40458728 743.04203725 -388.40458728 743.04203725 -590 813 C-590.66 812.67 -591.32 812.34 -592 812 C-591.52711548 811.25000732 -591.52711548 811.25000732 -591.04467773 810.48486328 C-542.81898593 733.79087521 -499.62690984 648.34701064 -483.1875 558.5 C-482.8949231 556.91022339 -482.8949231 556.91022339 -482.59643555 555.28833008 C-479.6902086 538.51374711 -478.77324248 521.8623806 -478.65203857 504.86535645 C-478.02616844 434.19995556 -460.13078802 363.1525728 -430.05908203 299.26220703 C-428.987598 296.97350923 -427.94316847 294.67387611 -426.90234375 292.37109375 C-421.01789124 279.48320017 -414.12906925 267.23462212 -407 255 C-406.4956543 254.12666016 -405.99130859 253.25332031 -405.47167969 252.35351562 C-395.48438218 235.09493815 -384.18099819 218.78139942 -372 203 C-371.35683838 202.16178711 -371.35683838 202.16178711 -370.70068359 201.30664062 C-364.75930821 193.57589748 -358.60116502 186.18287688 -352 179 C-350.87060071 177.71217819 -349.745415 176.42064578 -348.625 175.125 C-337.45413424 162.34736588 -325.85674261 149.54830104 -312.86328125 138.5859375 C-310.64528815 136.69808593 -308.51757845 134.72297208 -306.375 132.75 C-300.76849986 127.69817643 -294.87601251 123.07178231 -288.89941406 118.47119141 C-287.01227156 117.00950494 -285.14196646 115.52834704 -283.2734375 114.04296875 C-265.92532623 100.37172533 -247.21950493 87.88533734 -228 77 C-227.32275879 76.61473145 -226.64551758 76.22946289 -225.94775391 75.83251953 C-221.41950146 73.26539323 -216.8680813 70.74361205 -212.29736328 68.25292969 C-210.80145469 67.43709516 -209.30752682 66.61761485 -207.81591797 65.79394531 C-149.75858453 33.79755437 -67.25862782 0 0 0 Z " fill="#0033A0" transform="translate(992,2164)"/>
<path d="M0 0 C3.84874233 1.5465266 5.91681755 3.90493434 8.625 7 C18.76141699 18.33780955 29.38160735 29.57854589 41.390625 38.94921875 C43.81480792 40.85445233 46.14486855 42.8424554 48.46899414 44.86767578 C56.88522716 52.1685355 65.87031774 58.62637027 75 65 C75.61536621 65.43135254 76.23073242 65.86270508 76.86474609 66.30712891 C97.48438725 80.66857884 119.4960612 92.8790059 142 104 C142.97694824 104.4842041 143.95389648 104.9684082 144.96044922 105.46728516 C219.23312685 141.87146574 304.26036328 156.99593959 519.01000977 141.79663086 C540.27829128 137.01921252 562.7042829 137.34315155 584 142 C585.12656006 142.24145752 585.12656006 142.24145752 586.27587891 142.48779297 C612.49797895 148.34681983 636.73357249 162.7708641 652.1640625 185.13671875 C666.83463401 208.35138716 671.65738553 233.24996061 671.4375 260.375 C671.43279694 261.24416046 671.42809387 262.11332092 671.42324829 263.00881958 C670.90546223 333.52967505 644.28189317 404.6301598 624.80471802 471.85108948 C587.49084548 597.79142676 587.49084548 597.79142676 588.90332031 805.25366211 C591.09587257 810.71238229 591.09587257 810.71238229 590 814 C588.78143382 812.57833946 587.56289679 811.15665393 586.34448242 809.73486328 C585.26439649 808.4750111 584.18381496 807.21558366 583.1027832 805.95654297 C580.40998757 802.8190263 577.72311867 799.67720197 575.05859375 796.515625 C568.57713378 788.84698332 561.84304844 781.46462472 554.93359375 774.1796875 C551.93295161 771.01522505 549.00317756 767.792966 546.078125 764.55859375 C539.44817377 757.277467 532.48244589 750.33180071 525.51049805 743.38012695 C523.30205337 741.1770789 521.09905449 738.96868531 518.89648438 736.75976562 C517.46907076 735.33301235 516.04134723 733.90656905 514.61328125 732.48046875 C513.96724442 731.83240768 513.32120758 731.18434662 512.65559387 730.51664734 C508.83528818 726.71562228 504.90623564 723.09577287 500.81994629 719.58183289 C497.8644434 717.01301441 495.03556951 714.31150899 492.1875 711.625 C487.21815447 706.9748659 482.14103828 702.55033062 476.82421875 698.296875 C474.18772215 696.15267029 471.62292355 693.94830124 469.0637207 691.71362305 C461.69803344 685.29470334 454.04512221 679.37708145 446.16992188 673.59912109 C443.88985555 671.91882919 441.62387917 670.22072826 439.359375 668.51953125 C429.17411586 660.89491105 418.81034425 653.70959374 408 647 C407.38237793 646.61537598 406.76475586 646.23075195 406.12841797 645.83447266 C401.79428477 643.14933352 397.41272895 640.55362843 393 638 C392.26475098 637.57219238 391.52950195 637.14438477 390.77197266 636.70361328 C370.9554059 625.2508337 350.46938736 616.84552049 328.70214844 609.86865234 C310.10899717 603.89156234 292.49781955 596.0333266 275.14160156 587.09960938 C273.64345737 586.33038441 272.14256731 585.56649452 270.63964844 584.80664062 C231.92754807 565.2305491 195.11494413 540.25855248 163.1015625 510.921875 C161.19963858 509.18256911 159.26680268 507.49236869 157.3125 505.8125 C145.27289269 495.31142263 133.2774154 484.32981896 122.89453125 472.171875 C121.02606894 470.02988521 119.09717598 467.9530619 117.15405273 465.87890625 C111.16343183 459.46224397 105.7178538 452.7259706 100.37060547 445.76904297 C99.0247228 444.03190976 97.65942135 442.31239466 96.28515625 440.59765625 C79.37402374 419.46405666 65.05784835 396.68147162 52 373 C51.51031738 372.11393066 51.02063477 371.22786133 50.51611328 370.31494141 C15.63302498 306.67889539 -3.02928104 234.1850295 -8 162 C-8.08757568 160.78119141 -8.17515137 159.56238281 -8.26538086 158.30664062 C-9.18533505 144.5049809 -9.19993839 130.70234277 -9.1875 116.875 C-9.18689575 115.6336731 -9.1862915 114.39234619 -9.18566895 113.11340332 C-9.13556002 75.14672273 -6.21482798 37.47729602 0 0 Z " fill="#0033A0" transform="translate(1888,2732)"/>
<path d="M0 0 C65.37367885 10.38162112 129.22154844 28.328248 189 57 C190.03012207 57.49048828 191.06024414 57.98097656 192.12158203 58.48632812 C230.24669597 76.73603879 265.58898453 99.89849351 298 127 C298.88631104 127.73766602 298.88631104 127.73766602 299.79052734 128.49023438 C315.79958815 141.85416476 331.75952727 156.1175744 345.30078125 172.01953125 C347.28030432 174.32669952 349.3264212 176.56646782 351.375 178.8125 C418.53095945 253.43023272 460.18630831 352.05406715 477.90795898 507.72802734 C477.12379575 578.14007716 504.20463454 647.33656007 534 710 C534.99749315 712.11714165 535.99488833 714.23432946 536.9921875 716.3515625 C551.96937887 747.99656535 568.03068086 781.00537122 588.49609375 809.52734375 C588.99238281 810.34332031 589.48867187 811.15929688 590 812 C589.67 812.99 589.34 813.98 589 815 C588.48695313 814.48953125 587.97390625 813.9790625 587.4453125 813.453125 C521.27130864 750.62124254 407.54181785 747.02046573 241.13266182 739.78153324 C37.72849541 732.58297135 37.72849541 732.58297135 -11 693 C-11.77601563 692.38898437 -12.55203125 691.77796875 -13.3515625 691.1484375 C-32.51916039 675.23188095 -43.04941654 651.37901232 -46 627 C-46.28303775 622.47476545 -46.33452283 617.970743 -46.3125 613.4375 C-46.30686035 612.21023193 -46.3012207 610.98296387 -46.29541016 609.71850586 C-45.98255388 586.07927113 -40.42481008 563.70857877 -29 543 C-27.99321598 541.13887234 -26.98812551 539.27682795 -25.984375 537.4140625 C-23.75691866 533.28859775 -21.52360231 529.16638707 -19.28515625 525.046875 C-18.72973145 524.02400391 -18.17430664 523.00113281 -17.60205078 521.94726562 C-16.59714558 520.09855858 -15.59056714 518.25075902 -14.58154297 516.40429688 C22.85204374 447.6962145 47.04945991 370.95349178 57 287 C57.13277344 285.86916992 57.26554687 284.73833984 57.40234375 283.57324219 C61.06727493 250.7638723 60.90706146 215.7747248 57 183 C56.87109375 181.86079102 56.7421875 180.72158203 56.609375 179.54785156 C50.01878212 122.29207595 35.42506156 53.83932676 1.62109375 5.484375 C0 3 0 3 0 0 Z " fill="#00ACC1" transform="translate(2664,2169)"/>
<path d="M0 0 C0.82352966 -0.00067474 1.64705933 -0.00134949 2.49554443 -0.00204468 C15.27260593 0.01456584 27.66049889 0.52054833 40.1875 3.25 C40.97108887 3.41628906 41.75467773 3.58257813 42.56201172 3.75390625 C68.44126036 9.43356253 92.10808816 20.95405154 112.1875 38.25 C112.73599609 38.71486816 113.28449219 39.17973633 113.84960938 39.65869141 C122.80994055 47.31383953 130.10878871 55.85623847 137.1875 65.25 C137.67041504 65.88953613 138.15333008 66.52907227 138.65087891 67.18798828 C140.62401214 69.80675443 142.59140055 72.42964867 144.54931641 75.05981445 C148.34362667 80.15347038 152.21627014 85.18122378 156.125 90.1875 C162.3724582 98.18920452 168.54925923 106.2425386 174.70751953 114.31298828 C178.52003539 119.30284325 182.3560218 124.27470368 186.1875 129.25 C188.26634682 131.95176223 190.34456019 134.65401166 192.42285156 137.35620117 C194.59236977 140.17683169 196.76250728 142.99698262 198.93359375 145.81640625 C199.38412109 146.40164063 199.83464844 146.986875 200.29882812 147.58984375 C201.55192113 149.2175728 202.80525014 150.84512016 204.05859375 152.47265625 C204.76113281 153.38917969 205.46367188 154.30570313 206.1875 155.25 C207.10208984 156.17619141 207.10208984 156.17619141 208.03515625 157.12109375 C210.25808138 161.22785373 208.39405736 166.49634863 207.21235657 170.80793762 C206.81268173 172.01060776 206.4130069 173.21327789 206.0012207 174.45239258 C205.77944593 175.12661412 205.55767117 175.80083567 205.32917595 176.49548817 C204.59747946 178.71419907 203.85542169 180.92929421 203.11328125 183.14453125 C202.59155851 184.72002342 202.0705211 186.29574268 201.55012512 187.87167358 C200.44659747 191.20903019 199.33859658 194.54485257 198.22686768 197.87948608 C196.49097661 203.08633658 194.7647863 208.29636778 193.04052734 213.50708008 C191.328016 218.68109599 189.61510507 223.85497503 187.89868164 229.0276947 C183.93532438 240.97320528 180.01182502 252.93085908 176.13323975 264.90420532 C171.99896214 277.66506346 167.83782892 290.41700037 163.61346436 303.14834595 C163.12765925 304.61316939 162.64280977 306.07831017 162.15899658 307.54379272 C161.50876856 309.51198892 160.85465385 311.47884527 160.19921875 313.4453125 C159.83272217 314.54891113 159.46622559 315.65250977 159.08862305 316.78955078 C158.1875 319.25 158.1875 319.25 157.1875 320.25 C154.19966859 320.50714265 151.22889032 320.7011573 148.23512268 320.85705566 C147.28421169 320.9102907 146.33330069 320.96352574 145.35357422 321.01837397 C142.14162627 321.19705292 138.92935142 321.36898522 135.71704102 321.54101562 C133.42457831 321.66720197 131.132139 321.79381397 128.83972168 321.92082214 C123.89070794 322.19414413 118.94154536 322.46453007 113.99225044 322.73271179 C106.17399056 323.15646912 98.3561284 323.58726291 90.53831482 324.01916504 C79.58355086 324.62369852 68.62864478 325.2255767 57.67358398 325.82470703 C56.62999931 325.8817823 56.62999931 325.8817823 55.56533211 325.94001061 C51.3334972 326.17143869 47.10165798 326.40278771 42.86981773 326.63411808 C36.52379948 326.9810294 30.17778826 327.32806897 23.83178711 327.67529297 C22.78992245 327.73229719 22.78992245 327.73229719 21.72701002 327.79045302 C10.15772888 328.42356093 -1.41135666 329.06017002 -12.98031479 329.69915342 C-20.75954123 330.12855539 -28.53899069 330.55358888 -36.31863582 330.97533417 C-41.15025746 331.23812763 -45.98167419 331.50454566 -50.81304169 331.77196693 C-53.06163444 331.89566545 -55.31031239 332.01782563 -57.55907631 332.13837242 C-60.61733613 332.30251611 -63.67525103 332.47203436 -66.73313904 332.64294434 C-68.08326376 332.71342539 -68.08326376 332.71342539 -69.46066374 332.7853303 C-73.77400068 332.92319853 -73.77400068 332.92319853 -77.8125 334.25 C-71.27090114 339.86795118 -64.69018546 345.40308038 -57.875 350.6875 C-52.37041661 354.9599662 -47.0557457 359.41335279 -41.78808594 363.97363281 C-37.67943644 367.52549186 -33.49475808 370.95880243 -29.234375 374.328125 C-24.71588259 377.91376736 -20.27181292 381.59123694 -15.8125 385.25 C-13.97939838 386.75028317 -12.14606573 388.25028408 -10.3125 389.75 C33.6875 425.75 33.6875 425.75 77.6875 461.75 C78.59371094 462.49121094 79.49992187 463.23242188 80.43359375 463.99609375 C82.28087522 465.50798227 84.12721875 467.02101749 85.97265625 468.53515625 C92.00907327 473.4848484 98.08021209 478.38801591 104.1875 483.25 C102.67120694 490.83297453 100.40461672 498.03980891 97.9609375 505.37109375 C97.53631321 506.65617245 97.11213528 507.94139872 96.68836975 509.22676086 C95.78655109 511.95992101 94.88230469 514.69225985 93.9760437 517.4239502 C91.57644038 524.65808803 89.19300237 531.89756173 86.80859375 539.13671875 C86.56850901 539.86516621 86.32842426 540.59361366 86.08106422 541.34413528 C81.85113715 554.18097415 77.70294478 567.04266438 73.60522461 579.92236328 C72.6324606 582.97657577 71.65586509 586.02953359 70.67773438 589.08203125 C70.36291107 590.06456879 70.04808777 591.04710632 69.72372437 592.05941772 C69.10449987 593.9917485 68.48521806 595.92406091 67.86587524 597.85635376 C66.08632799 603.4162005 64.32867912 608.98240682 62.58662415 614.55410767 C61.51189093 617.97620181 60.41899134 621.39228826 59.32107544 624.80700684 C58.82267004 626.3710578 58.33223766 627.93767614 57.85055542 629.50695801 C57.1996353 631.62515344 56.52153098 633.73266271 55.8359375 635.83984375 C55.46645996 637.01409912 55.09698242 638.18835449 54.71630859 639.39819336 C52.37037432 643.77424865 48.64907432 644.75349862 44.07575989 646.30706787 C42.40787666 646.78880463 42.40787666 646.78880463 40.70629883 647.28027344 C40.08408101 647.46173101 39.46186319 647.64318859 38.82079029 647.83014488 C36.76356922 648.42865294 34.70409137 649.01897124 32.64453125 649.609375 C31.17712108 650.03477271 29.70986988 650.46071908 28.24276733 650.88717651 C24.31116155 652.02852917 20.37759998 653.16298931 16.44353867 654.29584503 C9.89038905 656.18426731 3.34030089 658.08331085 -3.2103405 659.98041153 C-4.85973244 660.4579272 -6.50920407 660.93516768 -8.15875435 661.41213608 C-18.8748485 664.51073045 -29.57527052 667.65474073 -40.2578125 670.8671875 C-42.5635332 671.55769982 -44.86927781 672.24813228 -47.17504883 672.93847656 C-50.34905685 673.88921724 -53.52171711 674.84345096 -56.69052124 675.81140137 C-74.73177311 681.32009561 -91.9614342 684.82949639 -110.875 684.625 C-111.90725204 684.61802094 -111.90725204 684.61802094 -112.96035767 684.61090088 C-123.83610594 684.52522182 -134.24840046 683.8999533 -144.8125 681.25 C-145.63186035 681.05132324 -146.4512207 680.85264648 -147.29541016 680.64794922 C-179.1805347 672.74621518 -206.5466504 656.10403088 -230.8125 634.25 C-231.3904834 633.73373047 -231.9684668 633.21746094 -232.56396484 632.68554688 C-238.3747045 627.4824768 -244.08950946 622.27341776 -249.09765625 616.2734375 C-251.13124837 613.87389145 -253.28513092 611.60606449 -255.4375 609.3125 C-262.07683248 602.02028309 -267.93414783 594.15927396 -273.8125 586.25 C-274.35310059 585.52893066 -274.89370117 584.80786133 -275.45068359 584.06494141 C-284.30570937 572.2271701 -292.25803089 559.9536404 -299.8125 547.25 C-300.30572754 546.42193848 -300.79895508 545.59387695 -301.30712891 544.74072266 C-345.43736301 470.16873107 -374.06227034 386.86744557 -404.8125 264.6875 C-404.99645325 263.82661774 -405.18040649 262.96573547 -405.36993408 262.07876587 C-406.55967147 256.47734963 -407.7056535 250.8683658 -408.8125 245.25 C-408.97024902 244.45491028 -409.12799805 243.65982056 -409.29052734 242.84063721 C-409.74725746 240.51172775 -410.18892206 238.18051179 -410.625 235.84765625 C-410.76115723 235.15345078 -410.89731445 234.4592453 -411.03759766 233.7440033 C-411.72124426 229.97018168 -412.05055201 226.91365603 -410.8125 223.25 C-409.54077148 221.50830078 -409.54077148 221.50830078 -407.93359375 219.9453125 C-407.0526001 219.07579956 -407.0526001 219.07579956 -406.15380859 218.1887207 C-405.52555176 217.59019287 -404.89729492 216.99166504 -404.25 216.375 C-403.60885254 215.75004639 -402.96770508 215.12509277 -402.30712891 214.48120117 C-398.58705682 210.87746966 -394.80944622 207.35868902 -390.85546875 204.01171875 C-388.70734941 202.15932521 -386.62656679 200.24165584 -384.5480957 198.31176758 C-379.43869799 193.56980171 -374.21486356 189.05937298 -368.78125 184.6875 C-365.28968068 181.82073782 -361.89726528 178.85221766 -358.5 175.875 C-352.58579355 170.70933252 -346.52721628 165.78832862 -340.3203125 160.98046875 C-337.35361213 158.68230893 -334.42928333 156.33605893 -331.51245117 153.97509766 C-316.0604023 141.48529441 -299.99276391 129.77382471 -283.8125 118.25 C-283.03471191 117.69489746 -282.25692383 117.13979492 -281.45556641 116.56787109 C-206.48748377 63.18450748 -120.43988731 13.27354212 -27.8125 1.25 C-27.05267822 1.146875 -26.29285645 1.04375 -25.51000977 0.9375 C-17.04561782 -0.07091602 -8.51224655 0.00626916 0 0 Z " fill="#6A1B9A" transform="translate(1187.8125,1258.75)"/>
<path d="M0 0 C0.9472998 0.54881836 1.89459961 1.09763672 2.87060547 1.66308594 C21.17467643 12.27987298 38.72236168 23.94882005 56.23583984 35.8067627 C58.70606367 37.47756521 61.18152875 39.14055626 63.65625 40.8046875 C90.37848054 58.84861158 116.39915156 78.44201731 140.921875 99.38671875 C143.7270732 101.77882269 146.57463157 104.11455851 149.4375 106.4375 C159.0483688 114.27168709 168.40929052 122.3769219 177.54296875 130.76171875 C179.72905069 132.75317336 181.94582606 134.69672513 184.1875 136.625 C187.69021344 139.6611635 190.93199333 142.90983733 194.1796875 146.21484375 C196.09677612 148.15486136 196.09677612 148.15486136 198.8125 150.25 C201.12900312 152.10320249 202.61178109 153.36969049 204 156 C204.49358052 163.32577406 203.04660735 170.20876878 201.625 177.375 C201.49506653 178.03560425 201.36513306 178.6962085 201.23126221 179.37683105 C184.16109887 265.7707819 156.81544082 351.42112669 76 504 C75.60006836 504.57717773 75.20013672 505.15435547 74.78808594 505.74902344 C68.52433288 514.76029763 61.93931286 523.49799054 55 532 C54.53319824 532.57266602 54.06639648 533.14533203 53.58544922 533.73535156 C46.61496201 542.20443415 39.10346929 550.09528092 31.375 557.875 C30.51664551 558.74261963 29.65829102 559.61023926 28.77392578 560.50415039 C13.5587931 575.64536692 -3.9579306 588.14189666 -23 598 C-23.66966797 598.35046387 -24.33933594 598.70092773 -25.02929688 599.06201172 C-47.07864039 610.45977771 -71.45690204 616.10242204 -96.25 616.25 C-97.47976563 616.2809375 -97.47976563 616.2809375 -98.734375 616.3125 C-121.05760896 616.44381314 -141.92890037 609.94834598 -163.05760574 603.54989243 C-167.18715067 602.303126 -171.32220014 601.07489121 -175.45678711 599.8449707 C-182.12211525 597.86016284 -188.7844664 595.86567667 -195.44482422 593.86425781 C-204.23768822 591.22304239 -213.04039584 588.61618675 -221.84765625 586.0234375 C-223.13419716 585.64440198 -224.42072689 585.26532853 -225.70724487 584.88621521 C-228.15393829 584.16526038 -230.60064397 583.44434718 -233.04736328 582.72348022 C-238.57567245 581.09417831 -244.10325411 579.46251054 -249.62890625 577.82421875 C-250.56162857 577.54923553 -251.49435089 577.27425232 -252.45533752 576.99093628 C-253.2970903 576.74086823 -254.13884308 576.49080017 -255.00610352 576.2331543 C-256.09907494 575.90966255 -256.09907494 575.90966255 -257.21412659 575.57963562 C-259 575 -259 575 -261 574 C-261.74026489 572.35597229 -261.74026489 572.35597229 -262.44189453 570.18188477 C-262.71109207 569.36026855 -262.98028961 568.53865234 -263.25764465 567.69213867 C-263.54645004 566.78439697 -263.83525543 565.87665527 -264.1328125 564.94140625 C-264.44123581 563.99233398 -264.74965912 563.04326172 -265.06742859 562.06542969 C-266.09392609 558.90009952 -267.10944609 555.73135665 -268.125 552.5625 C-268.84664571 550.32980155 -269.56890468 548.09730123 -270.29174805 545.86499023 C-275.82533294 528.7514727 -281.2918104 511.61605797 -286.75048828 494.47851562 C-290.5214152 482.65454922 -294.34951821 470.85071463 -298.23046875 459.0625 C-298.67431118 457.71337712 -299.11814362 456.36425095 -299.56196594 455.01512146 C-301.51333411 449.08552844 -303.46767318 443.15696192 -305.43252277 437.23182106 C-306.42693197 434.22981128 -307.41601712 431.22604574 -308.40625 428.22265625 C-308.77102951 427.12828247 -309.13580902 426.03390869 -309.51164246 424.90637207 C-310.00571342 423.40403015 -310.00571342 423.40403015 -310.50976562 421.87133789 C-310.79903931 420.9984462 -311.08831299 420.1255545 -311.38635254 419.22621155 C-312 417 -312 417 -312 414 C-309.97826667 412.20559801 -307.978548 410.60304518 -305.8125 409 C-304.52048891 408.01648212 -303.23016269 407.03074753 -301.94140625 406.04296875 C-301.28285645 405.53942871 -300.62430664 405.03588867 -299.94580078 404.51708984 C-296.97417051 402.20018765 -294.10994714 399.76498849 -291.25 397.3125 C-286.82536889 393.53331969 -282.348098 389.83869907 -277.7890625 386.22265625 C-274.19506441 383.35853172 -270.62822672 380.46170086 -267.0625 377.5625 C-266.36664795 376.9967627 -265.6707959 376.43102539 -264.95385742 375.84814453 C-260.26388499 372.03281692 -255.58298542 368.20654227 -250.90625 364.375 C-247.2769471 361.40911806 -243.63869437 358.45434694 -240 355.5 C-233.65476674 350.34779234 -227.32169206 345.18108095 -221 340 C-213.98208744 334.24831631 -206.94779743 328.51724044 -199.90356445 322.79785156 C-196.09634929 319.70587121 -192.29393199 316.60828163 -188.5 313.5 C-184.00976092 309.82124991 -179.50642685 306.15888063 -175 302.5 C-168.65476674 297.34779234 -162.32169206 292.18108095 -156 287 C-149.5573382 281.71977565 -143.10274611 276.45469862 -136.63671875 271.203125 C-135.89981812 270.6045166 -135.16291748 270.0059082 -134.40368652 269.38916016 C-132.60251914 267.92603108 -130.80128893 266.46297943 -129 265 C-164.95232149 262.70324329 -200.91008431 260.5121698 -236.875 258.421875 C-237.81296921 258.36735987 -238.75093842 258.31284473 -239.71733093 258.25667763 C-251.21658631 257.58857167 -262.71598031 256.92286949 -274.2154274 256.25807238 C-284.15136054 255.68360346 -294.08719356 255.10741109 -304.0230217 254.53112936 C-324.34857643 253.35227554 -344.67424588 252.17541083 -365 251 C-367.15871896 245.69376721 -369.28868006 240.40987309 -371.03613281 234.95092773 C-371.38520691 233.86670029 -371.73428101 232.78247284 -372.09393311 231.66539001 C-372.45996643 230.51639725 -372.82599976 229.36740448 -373.203125 228.18359375 C-373.80857865 226.29902082 -374.41403414 224.41444849 -375.01956558 222.52990055 C-375.65929526 220.53670915 -376.29731452 218.54297787 -376.93481445 216.54907227 C-378.94598608 210.25915342 -380.9675649 203.97257608 -382.98828125 197.68571854 C-383.67313318 195.55467868 -384.35756764 193.42350503 -385.04199219 191.29232788 C-388.49801717 180.53554999 -391.99477051 169.79247161 -395.51611328 159.05688477 C-396.82927016 155.05325898 -398.13490017 151.04731699 -399.43310547 147.03881836 C-402.1915365 138.52900942 -404.96834134 130.03184617 -407.91485596 121.58496094 C-409.14029306 118.05763726 -410.33575408 114.52057171 -411.52661133 110.98144531 C-412.08370636 109.35200246 -412.6550789 107.72735766 -413.24194336 106.10839844 C-417.62385987 94.00779434 -417.62385987 94.00779434 -416.14013672 89.23266602 C-414.61424221 86.86929343 -412.97841839 84.99410767 -411 83 C-410.05867071 81.80989764 -409.12833552 80.61098982 -408.2109375 79.40234375 C-407.26862486 78.24494697 -406.32322791 77.09005553 -405.375 75.9375 C-401.11301389 70.68606457 -396.97260998 65.36518295 -392.9375 59.9375 C-387.89841626 53.16633301 -382.72479986 46.51611628 -377.4921875 39.89404297 C-370.08346965 30.49011086 -362.76180809 21.01768866 -355.5 11.5 C-353.33466009 8.6656502 -351.16781778 5.83245502 -349 3 C-348.11731445 1.84588623 -348.11731445 1.84588623 -347.21679688 0.66845703 C-337.37668105 -12.17368344 -327.8855116 -24.04620561 -315 -34 C-314.07445313 -34.74121094 -313.14890625 -35.48242188 -312.1953125 -36.24609375 C-239.27786314 -93.25607787 -137.52386225 -66.79586511 0 0 Z " fill="#6A1B9A" transform="translate(2684,1335)"/>
<path d="M0 0 C3.99652518 1.97118586 7.43061972 4.5285374 11.0078125 7.171875 C11.79478516 7.74679688 12.58175781 8.32171875 13.39257812 8.9140625 C15.89382648 10.74395441 18.38899546 12.58187131 20.8828125 14.421875 C22.47395631 15.59375274 24.06510212 16.76562778 25.65625 17.9375 C28.02887248 19.68601908 30.40094507 21.43526735 32.77172852 23.1862793 C41.09520506 29.32998001 49.48601775 35.37897803 57.8828125 41.421875 C67.88831648 48.62250708 77.85969728 55.86438286 87.77490234 63.18896484 C95.33921602 68.77122703 102.9576939 74.2766579 110.58740234 79.76904297 C114.64648723 82.69182586 118.70216443 85.6193261 122.7578125 88.546875 C123.51328369 89.09158447 124.26875488 89.63629395 125.04711914 90.19750977 C125.75344482 90.70725342 126.45977051 91.21699707 127.1875 91.7421875 C127.80608887 92.18836426 128.42467773 92.63454102 129.06201172 93.09423828 C131.01596252 94.51896132 132.94942967 95.96940579 134.8828125 97.421875 C132.32349639 108.50228777 129.60869048 119.52758784 126.70703125 130.5234375 C126.30485773 132.0540361 125.90286575 133.5846824 125.5010376 135.1153717 C124.41922222 139.23392436 123.33461369 143.35173648 122.24937057 147.46938705 C121.33027455 150.95798254 120.41277985 154.44699839 119.49525547 157.9360075 C116.29645436 170.09937352 113.09066317 182.2608929 109.8828125 194.421875 C109.63197906 195.37283302 109.38114563 196.32379105 109.12271118 197.30356598 C97.76580971 240.35791273 86.40211202 283.41063567 74.8828125 326.421875 C78.77300399 324.52415606 82.41012955 322.28724195 86.0703125 319.984375 C86.77808838 319.5404541 87.48586426 319.0965332 88.21508789 318.63916016 C93.80436049 315.12329758 99.35420688 311.5486383 104.89135742 307.95141602 C111.3694124 303.74493402 117.87455054 299.5814334 124.3828125 295.421875 C131.39440704 290.93959143 138.40152514 286.45123599 145.3828125 281.921875 C157.60666712 273.99349732 169.89596155 266.16673548 182.171875 258.31933594 C192.91468171 251.4512468 203.65687537 244.58314021 214.35351562 237.64331055 C221.75895219 232.84385352 229.19801358 228.09701573 236.63330078 223.34399414 C243.53585999 218.92954221 250.42420953 214.49407553 257.29858398 210.03588867 C262.80630705 206.46556951 268.33637252 202.93182514 273.8828125 199.421875 C278.99564706 202.21129052 283.58435466 205.31122452 288.1953125 208.859375 C293.97438205 213.25041108 299.80003944 217.56309683 305.6953125 221.796875 C311.95568244 226.29712799 318.18268188 230.83897681 324.3828125 235.421875 C333.50019895 242.15753504 342.68222214 248.80051278 351.8828125 255.421875 C361.8772519 262.61454427 371.83805597 269.84782793 381.74194336 277.16479492 C387.43316555 281.36505233 393.14872702 285.5303331 398.8828125 289.671875 C399.64271484 290.22101562 400.40261719 290.77015625 401.18554688 291.3359375 C404.06065027 293.40874763 406.93313127 295.45542085 409.8828125 297.421875 C410.09771434 300.203339 410.11871441 302.74802905 410.00317383 305.52172852 C409.96894223 306.78157342 409.96894223 306.78157342 409.93401909 308.06686974 C409.85437435 310.87463039 409.75324712 313.68121037 409.65234375 316.48828125 C409.59194944 318.47298366 409.53304198 320.45773182 409.47554016 322.44252014 C409.35223972 326.63538107 409.22087935 330.82788431 409.08404541 335.02032471 C408.88477416 341.21719185 408.72267952 347.41458105 408.57177734 353.61279297 C408.34759927 362.77665292 408.10112146 371.93960563 407.83453178 381.10233116 C407.68402995 386.29011001 407.54024931 391.47789456 407.41137695 396.66625977 C407.28266714 401.83982745 407.13695388 407.01267422 406.97992897 412.18545723 C406.92430567 414.10774408 406.87429643 416.0302042 406.83075523 417.95280266 C406.43700883 435.03884573 404.3537961 452.03432816 398.6328125 468.234375 C398.33689209 469.09417969 398.04097168 469.95398437 397.73608398 470.83984375 C390.13577796 492.23417948 377.57916574 511.16665125 362.2578125 527.796875 C361.48691284 528.63496704 361.48691284 528.63496704 360.70043945 529.48999023 C347.01627288 544.04821267 330.18490869 555.61343045 312.8828125 565.421875 C312.08955566 565.87272461 311.29629883 566.32357422 310.47900391 566.78808594 C236.69793199 608.19717987 146.30949974 618.29859331 -115.8046875 613.359375 C-117.61163086 613.13435303 -117.61163086 613.13435303 -119.45507812 612.90478516 C-120.54369141 612.75444824 -121.63230469 612.60411133 -122.75390625 612.44921875 C-124.14162231 612.25960571 -124.14162231 612.25960571 -125.55737305 612.06616211 C-129.57275113 611.05551998 -132.26967163 609.66809265 -134.62426758 606.20581055 C-135.04087646 605.332229 -135.45748535 604.45864746 -135.88671875 603.55859375 C-136.37454834 602.54684082 -136.86237793 601.53508789 -137.36499023 600.49267578 C-137.88134033 599.37618652 -138.39769043 598.25969727 -138.9296875 597.109375 C-139.48664307 595.92585449 -140.04359863 594.74233398 -140.61743164 593.52294922 C-153.8898046 565.09609814 -165.33937743 535.87039326 -176.1171875 506.421875 C-176.5103717 505.35157043 -176.5103717 505.35157043 -176.91149902 504.25964355 C-205.14852277 427.36846226 -227.26349589 345.59223012 -212.1171875 131.421875 C-211.80587891 130.68984863 -211.49457031 129.95782227 -211.17382812 129.20361328 C-203.52408379 111.47381415 -193.23435745 95.59776831 -180.1171875 81.421875 C-179.64313477 80.90931152 -179.16908203 80.39674805 -178.68066406 79.86865234 C-161.24316141 61.2604957 -139.61493416 48.13455045 -115.5625 39.796875 C-113.73224174 39.15123203 -111.9019835 38.50558902 -110.07172585 37.85994434 C-108.13157859 37.17725441 -106.19010821 36.49846689 -104.24816895 35.82089233 C-100.18318791 34.40249821 -96.12208628 32.97322157 -92.06152344 31.54223633 C-87.08238078 29.78830694 -82.1023696 28.03688757 -77.12119293 26.28874302 C-63.93732875 21.66150016 -50.76772446 16.99416129 -37.6001606 12.32076836 C-33.46548772 10.85335694 -29.3301498 9.38784278 -25.19415855 7.92415142 C-23.24596276 7.23455261 -21.29797171 6.54437909 -19.35006714 5.85395813 C-16.97143064 5.01089169 -14.59247946 4.16871241 -12.21316528 3.32756042 C-11.16990082 2.95738297 -10.12663635 2.58720551 -9.05175781 2.20581055 C-8.1417804 1.88356003 -7.23180298 1.56130951 -6.29425049 1.22929382 C-1.71614041 -0.46861399 -1.71614041 -0.46861399 0 0 Z " fill="#6A1B9A" transform="translate(1306.1171875,2116.578125)"/>
<path d="M0 0 C1.27920873 0.45548014 2.55858076 0.91050188 3.83810425 1.36509705 C7.23833516 2.57468354 10.63616908 3.7908687 14.03350449 5.00856018 C17.55987151 6.27134809 21.08831467 7.52831022 24.61645508 8.78613281 C32.68868933 11.66552758 40.75684278 14.55624549 48.82421875 17.44921875 C50.82258657 18.16521461 52.82095848 18.88119901 54.81933594 19.59716797 C62.95472087 22.51378624 71.08343885 25.4475439 79.20129395 28.41261292 C83.56075781 30.00110784 87.93475977 31.54060294 92.31640625 33.06640625 C116.18410406 41.4676286 135.39817015 53.0778598 153.82421875 70.44921875 C154.54867187 71.10921875 155.273125 71.76921875 156.01953125 72.44921875 C197.84005825 112.02133032 207.98051317 173.61684309 209.82421875 228.44921875 C211.53200562 311.93192334 189.84652245 395.46637939 109.82421875 604.44921875 C106.62345492 605.43344231 103.25358503 605.81034562 99.94921875 606.32421875 C98.86495605 606.49421387 97.78069336 606.66420898 96.66357422 606.83935547 C14.18682716 619.05771726 -72.71511406 619.06530444 -359.10058594 543.04296875 C-370.72466489 534.39706111 -382.10518483 524.79258312 -391.17578125 513.44921875 C-391.94277344 512.50820312 -392.70976563 511.5671875 -393.5 510.59765625 C-416.47624131 481.92968468 -427.62752048 448.02669014 -428.56469727 411.4519043 C-428.594104 410.41274368 -428.62351074 409.37358307 -428.65380859 408.30293274 C-428.74923999 404.89735347 -428.83962221 401.49166259 -428.9296875 398.0859375 C-428.99530029 395.68812979 -429.06113577 393.29032816 -429.12718201 390.89253235 C-429.2646845 385.87201623 -429.39972149 380.85144162 -429.53295898 375.83081055 C-429.70224196 369.45802436 -429.87726103 363.08541183 -430.05413914 356.71283245 C-430.19106873 351.75802004 -430.3250458 346.80313099 -430.45817375 341.8482151 C-430.52150935 339.50232459 -430.58567659 337.15645634 -430.65075874 334.81061363 C-430.80003854 329.401525 -430.93551745 323.99308907 -431.03567505 318.58285522 C-431.11376832 314.44851606 -431.27487923 310.32808417 -431.48849487 306.19863892 C-431.56070268 304.22335476 -431.63219735 302.24804437 -431.70288086 300.27270508 C-431.76600495 299.38129413 -431.82912905 298.48988317 -431.89416599 297.57145977 C-431.99466988 293.735344 -431.94569336 291.41065996 -429.49264431 288.34737206 C-426.0787829 285.23932372 -422.44820861 282.63365659 -418.375 280.44921875 C-413.1479708 277.50199122 -408.44834793 274.07420999 -403.67578125 270.44921875 C-402.08535245 269.27070776 -400.49290331 268.09491835 -398.8984375 266.921875 C-398.11484863 266.34453613 -397.33125977 265.76719727 -396.52392578 265.17236328 C-390.51404195 260.76211582 -384.45959618 256.41315338 -378.40966797 252.05810547 C-374.66218341 249.35909747 -370.9192228 246.65382991 -367.17578125 243.94921875 C-365.67580271 242.86585571 -364.17580271 241.78252237 -362.67578125 240.69921875 C-361.93328125 240.16296875 -361.19078125 239.62671875 -360.42578125 239.07421875 C-353.67578125 234.19921875 -353.67578125 234.19921875 -351.42602539 232.57446289 C-349.92512575 231.49043459 -348.42431203 230.40628733 -346.92358398 229.32202148 C-343.18804158 226.6233422 -339.45105871 223.92670563 -335.7109375 221.234375 C-326.94487543 214.92001711 -318.21682725 208.55842798 -309.54321289 202.11743164 C-308.08155378 201.03505481 -306.61619794 199.95764495 -305.14648438 198.88623047 C-303.90160029 197.97847679 -302.66469702 197.0595817 -301.43945312 196.12548828 C-297.68273014 193.37847275 -297.68273014 193.37847275 -295.24438477 193.71875 C-293.08756621 194.48036939 -291.32277911 195.40434894 -289.375 196.6015625 C-288.29303345 197.26321411 -288.29303345 197.26321411 -287.18920898 197.93823242 C-286.42165283 198.41623291 -285.65409668 198.8942334 -284.86328125 199.38671875 C-284.05640869 199.88469971 -283.24953613 200.38268066 -282.41821289 200.89575195 C-276.98596509 204.26861828 -271.64111397 207.75336363 -266.34326172 211.33251953 C-260.28933622 215.40990996 -254.14146525 219.33621226 -247.98828125 223.26171875 C-240.36361298 228.12668054 -232.75124716 233.00795773 -225.17578125 237.94921875 C-217.70137623 242.82297161 -210.19550958 247.64570744 -202.67578125 252.44921875 C-194.35028424 257.76744533 -186.0488171 263.11980839 -177.7734375 268.515625 C-171.09730159 272.8631247 -164.38974595 277.16041948 -157.67578125 281.44921875 C-149.36278609 286.7594593 -141.07344951 292.10328395 -132.81079102 297.49145508 C-124.67432764 302.79032582 -116.49367495 308.01973165 -108.31054688 313.24609375 C-107.29541016 313.89449219 -106.28027344 314.54289062 -105.234375 315.2109375 C-103.87783813 316.07658325 -103.87783813 316.07658325 -102.49389648 316.9597168 C-100.71014129 318.1058664 -98.93993224 319.27311809 -97.17578125 320.44921875 C-99.8119949 308.16909879 -102.77316363 296.0140735 -106.0078125 283.87890625 C-106.47773609 282.10473091 -106.94730439 280.33046143 -107.41654968 278.55610657 C-108.41639666 274.77772472 -109.41828409 270.99989278 -110.421875 267.22250366 C-112.83727162 258.13049677 -115.24177712 249.03560664 -117.64704514 239.94091606 C-118.20178656 237.84355684 -118.75666053 235.74623268 -119.31166458 233.64894295 C-126.20703148 207.59186412 -133.01557394 181.5122081 -139.81552601 155.43009567 C-140.50266313 152.79510092 -141.19030621 150.16023858 -141.87800598 147.52539062 C-142.75057188 144.18190755 -143.62061772 140.83778392 -144.48881531 137.49316406 C-146.49262721 129.78773547 -148.53637109 122.09719049 -150.67578125 114.42822266 C-151.25325007 112.33947892 -151.82995655 110.2505258 -152.40660095 108.16155434 C-152.94110843 106.24460535 -153.49137628 104.33207268 -154.04211426 102.41972351 C-154.3549939 101.2877504 -154.66787354 100.15577728 -154.99023438 98.98950195 C-155.26903442 98.00939651 -155.54783447 97.02929108 -155.83508301 96.01948547 C-156.22898597 93.04783624 -155.82868716 91.90498309 -154.17578125 89.44921875 C-152.58203125 88.00805664 -152.58203125 88.00805664 -150.67578125 86.671875 C-149.96301025 86.165354 -149.25023926 85.65883301 -148.51586914 85.13696289 C-147.35752563 84.33246704 -147.35752563 84.33246704 -146.17578125 83.51171875 C-144.52851244 82.34524044 -142.88138074 81.17856848 -141.234375 80.01171875 C-139.96956299 79.12226563 -139.96956299 79.12226563 -138.67919922 78.21484375 C-134.84414625 75.51003557 -131.04078845 72.76200223 -127.23828125 70.01171875 C-126.50254883 69.48094727 -125.76681641 68.95017578 -125.00878906 68.40332031 C-119.4548336 64.39146094 -113.93597038 60.33341206 -108.42578125 56.26171875 C-101.90855252 51.44634946 -95.3546481 46.69057402 -88.75 41.99609375 C-82.30052614 37.40931662 -75.89870732 32.75588522 -69.48583984 28.11816406 C-67.22397296 26.48403576 -64.96001817 24.85284745 -62.6953125 23.22265625 C-53.24798346 16.4190072 -43.84683782 9.55533241 -34.48046875 2.640625 C-33.75827148 2.11742676 -33.03607422 1.59422852 -32.29199219 1.05517578 C-30.14506775 -0.52767678 -30.14506775 -0.52767678 -28.16113281 -2.36376953 C-27.18225098 -3.21624268 -27.18225098 -3.21624268 -26.18359375 -4.0859375 C-25.62559082 -4.60679932 -25.06758789 -5.12766113 -24.49267578 -5.66430664 C-17.5301603 -8.32825751 -6.61264013 -2.37651416 0 0 Z " fill="#6A1B9A" transform="translate(2371.17578125,2127.55078125)"/>
<path d="M0 0 C3.73484479 1.68931785 7.29929478 3.62347898 10.875 5.625 C11.92002686 6.20113037 12.96505371 6.77726074 14.04174805 7.37084961 C38.3910802 20.90793824 61.94367351 35.83647476 85.10717773 51.29956055 C87.56278666 52.93769123 90.02246253 54.56958363 92.48242188 56.20117188 C102.87869838 63.11849296 113.06524336 70.28136398 123.14694214 77.64883423 C125.48850976 79.35619917 127.84392025 81.04367464 130.203125 82.7265625 C138.74202064 88.83528118 147.10776687 95.10400954 155.31005859 101.65722656 C157.03798765 103.03018378 158.77675536 104.38813664 160.51953125 105.7421875 C166.90020672 110.70405657 173.16988299 115.76360347 179.31445312 121.015625 C182.688141 123.89911891 186.10526183 126.71637844 189.5625 129.5 C194.55168418 133.55825768 199.27670615 137.84515566 203.98046875 142.2265625 C206.25321498 144.33476776 208.57164219 146.3829928 210.91015625 148.41796875 C221.52098224 157.66811087 231.59647779 167.50185078 241.5625 177.4375 C242.39491211 178.26531982 243.22732422 179.09313965 244.08496094 179.94604492 C248.36407129 184.23595239 252.48763529 188.59887828 256.43823242 193.19311523 C258.6867391 195.79452182 261.03135811 198.296428 263.375 200.8125 C268.48762397 206.36055653 273.30750013 212.09010629 278 218 C278.49306641 218.6098877 278.98613281 219.21977539 279.49414062 219.84814453 C315.76009137 264.74205876 346.62545 319.14437234 346.3125 378.3125 C346.30976578 379.39375656 346.30976578 379.39375656 346.30697632 380.49685669 C346.25990862 391.58199065 345.65977018 402.20772498 343 413 C342.83902832 413.70479492 342.67805664 414.40958984 342.51220703 415.13574219 C338.4744029 432.61349956 331.62884058 449.42570664 321.30566406 464.13476562 C319.82635661 466.24806198 318.37722189 468.38044488 316.9296875 470.515625 C313.64090181 475.35837667 310.32235572 480.18024453 307 485 C305.61003083 487.02066416 304.22075945 489.04180661 302.83154297 491.06298828 C301.94282195 492.35582154 301.05382387 493.64846439 300.16455078 494.94091797 C296.60078128 500.12118964 293.0490906 505.30966328 289.5 510.5 C285.06513956 516.98572314 280.62211948 523.46569724 276.16625977 529.93701172 C273.69499373 533.52792351 271.23172372 537.12408379 268.77734375 540.7265625 C268.22175781 541.54125 267.66617188 542.3559375 267.09375 543.1953125 C266.04166776 544.73869729 264.99075013 546.2828771 263.94140625 547.828125 C262.93835909 549.29891437 261.91909835 550.7587796 260.88379478 552.2070446 C258.90056013 555.06115911 258.90056013 555.06115911 257.05927467 558.49109077 C253.97904387 563.78917005 251.35716941 568.16550207 245.40703964 570.27199936 C241.08929354 570.89625125 236.79000641 570.73546223 232.44287109 570.58935547 C230.78624814 570.58540027 229.1296007 570.58763519 227.47299194 570.59555054 C223.00047077 570.59954899 218.53326412 570.51758276 214.06197309 570.41951513 C209.3804305 570.33166471 204.69874968 570.32374765 200.01651001 570.30715942 C191.16168258 570.2637396 182.30929097 570.14899252 173.45553362 570.00826657 C163.37119567 569.85147991 153.28673791 569.77473341 143.20148349 569.70453048 C122.46629892 569.55840972 101.73330322 569.31235413 81 569 C80.20252853 567.26003314 79.40663852 565.5193414 78.61140442 563.77835083 C78.16802136 562.8090822 77.72463831 561.83981358 77.2678194 560.84117317 C75.55612522 557.00528016 74.04375887 553.11330637 72.57421875 549.1796875 C72.27004028 548.37543839 71.96586182 547.57118927 71.65246582 546.74256897 C71.00075018 545.0189499 70.35054571 543.29475878 69.70175171 541.57003784 C67.93496593 536.87539008 66.15480232 532.18581911 64.375 527.49609375 C64.00972702 526.53310867 63.64445404 525.5701236 63.26811218 524.57795715 C59.63306814 515.00817808 55.91979672 505.46969035 52.1875 495.9375 C50.85400856 492.53000977 49.52070705 489.12244526 48.1875 485.71484375 C47.85008789 484.85258179 47.51267578 483.99031982 47.16503906 483.10192871 C42.98344322 472.40999013 38.83578932 461.70489429 34.6875 451 C33.89022235 448.94303221 33.09294044 446.88606607 32.2956543 444.82910156 C29.02374872 436.38693981 25.75304216 427.94431375 22.48291016 419.50146484 C19.98918079 413.06325408 17.49491452 406.62525159 15 400.1875 C14.60182068 399.16004669 14.20364136 398.13259338 13.793396 397.07400513 C7.57489928 381.03113951 1.32206081 365.00237591 -5 349 C-14.3927076 372.73292183 -23.72260664 396.48954473 -32.98817444 420.27238464 C-35.28846333 426.17630524 -37.5923503 432.07881078 -39.8984375 437.98046875 C-47.48396962 457.39585701 -55.03654876 476.82372846 -62.56555176 496.2611084 C-68.70249016 512.10200585 -74.86990986 527.93077565 -81.0625 543.75 C-81.6471402 545.24362564 -81.6471402 545.24362564 -82.24359131 546.76742554 C-83.34041869 549.56905023 -84.43764868 552.3705167 -85.53515625 555.171875 C-85.85820236 555.99659805 -86.18124847 556.82132111 -86.51408386 557.67103577 C-86.8137355 558.43540451 -87.11338715 559.19977325 -87.42211914 559.98730469 C-87.68013809 560.64559265 -87.93815704 561.30388062 -88.20399475 561.9821167 C-89.12805192 564.32461322 -90.06418541 566.66217894 -91 569 C-112.74866201 569.28054169 -134.49702499 569.49203796 -156.24713039 569.62174606 C-166.34660323 569.68357804 -176.44495075 569.76784562 -186.54370117 569.90527344 C-195.34769753 570.02502443 -204.15087891 570.10233134 -212.95566708 570.12906194 C-217.61664278 570.14468454 -222.27528743 570.18128785 -226.93551445 570.26876068 C-231.32673586 570.35051276 -235.71467821 570.37528523 -240.10658836 570.35729218 C-241.71393446 570.36058094 -243.32139544 570.38429037 -244.92808151 570.4304657 C-257.02591192 570.76095764 -257.02591192 570.76095764 -261.8856678 566.42588043 C-264.20302333 563.37979439 -266.12548457 560.33289495 -268 557 C-269.19583291 555.19996596 -270.40233273 553.40691572 -271.625 551.625 C-272.27339844 550.63886719 -272.92179687 549.65273437 -273.58984375 548.63671875 C-276.73451007 543.86678108 -279.96605237 539.15574912 -283.1875 534.4375 C-284.16323975 533.00784912 -284.16323975 533.00784912 -285.15869141 531.54931641 C-289.79577924 524.75794586 -294.43911172 517.97084914 -299.0847168 511.18530273 C-303.86575225 504.20054858 -308.63517775 497.20790337 -313.39868164 490.21118164 C-316.4400643 485.74573757 -319.48867439 481.28572807 -322.55859375 476.83984375 C-325.73118599 472.24358862 -328.87657708 467.62979379 -332 463 C-332.39799805 462.41492676 -332.79599609 461.82985352 -333.20605469 461.22705078 C-342.82051798 446.96773345 -348.92339394 430.638241 -353 414 C-353.3196875 412.74703125 -353.639375 411.4940625 -353.96875 410.203125 C-358.76389306 388.75943693 -358.16941803 362.29540132 -353 341 C-352.70198486 339.72358643 -352.70198486 339.72358643 -352.39794922 338.42138672 C-342.18218229 295.5151656 -319.26204501 257.21760102 -292 223 C-291.2884375 222.10667969 -290.576875 221.21335937 -289.84375 220.29296875 C-274.96178256 201.87923005 -258.83251296 184.75062406 -242.125 168 C-241.53700623 167.40932739 -240.94901245 166.81865479 -240.34320068 166.21008301 C-234.60010103 160.44715262 -228.87708201 154.71857603 -222.68164062 149.43652344 C-220.11188749 147.24133943 -217.66051242 144.92853325 -215.1875 142.625 C-210.56566169 138.35480741 -205.80576052 134.31774627 -200.90234375 130.37109375 C-197.61036329 127.68168307 -194.4000852 124.90814734 -191.1875 122.125 C-184.29932831 116.18410447 -177.20520825 110.54970348 -170 105 C-169.35192383 104.49887695 -168.70384766 103.99775391 -168.03613281 103.48144531 C-123.46214998 69.03693763 -76.57430282 37.65771343 -27.5625 9.875 C-26.18819824 9.09491577 -26.18819824 9.09491577 -24.78613281 8.29907227 C-22.20152155 6.84552526 -19.60235975 5.42146119 -17 4 C-16.13101074 3.50145508 -15.26202148 3.00291016 -14.36669922 2.48925781 C-9.15814492 -0.36498673 -5.91474832 -1.93691758 0 0 Z " fill="#6A1B9A" transform="translate(1840,722)"/>
<path d="M0 0 C0.66 0 1.32 0 2 0 C2.30067383 0.58152832 2.60134766 1.16305664 2.91113281 1.76220703 C8.91970099 13.36832645 15.00564243 24.9233616 21.29052734 36.38232422 C25.36355212 43.81438261 29.37860153 51.27649969 33.375 58.75 C34.65228852 61.13805038 35.92963565 63.5260694 37.20703125 65.9140625 C37.68153214 66.80118172 37.68153214 66.80118172 38.1656189 67.70622253 C41.45372639 73.85166294 44.75673722 79.98904356 48.0625 86.125 C48.63597168 87.18944336 49.20944336 88.25388672 49.80029297 89.35058594 C50.95548805 91.49450837 52.11076131 93.63838868 53.26611328 95.78222656 C56.17870265 101.18745437 59.0892423 106.59378568 62 112 C63.16665696 114.16667189 64.33332363 116.33333856 65.5 118.5 C100.5 183.5 100.5 183.5 102.25170898 186.75341797 C103.412407 188.90883792 104.5733748 191.06411262 105.73461914 193.21923828 C108.74489327 198.80678743 111.74970947 204.39717593 114.74609375 209.9921875 C115.36419922 211.14460937 115.98230469 212.29703125 116.61914062 213.484375 C117.78757735 215.66311416 118.95438276 217.8427294 120.11914062 220.0234375 C123.44809403 226.22576124 126.93909076 232.26256392 130.69946289 238.21533203 C132.22610012 241.48411826 132.46013356 243.43049691 132 247 C127.22093783 256.74284138 117.78358631 264.60849313 110.1640625 272.1171875 C107.99733228 274.2526292 105.84157478 276.39867497 103.6875 278.546875 C102.29228856 279.93291795 100.89647555 281.31835568 99.5 282.703125 C98.86642578 283.33244934 98.23285156 283.96177368 97.58007812 284.61016846 C93.8128103 288.31851095 89.92745729 291.83446235 85.93093872 295.29342651 C82.95302119 297.92532521 80.14408572 300.71276626 77.33984375 303.52734375 C76.74627579 304.11995499 76.15270782 304.71256622 75.54115295 305.32313538 C74.29891292 306.56470122 73.05790932 307.80750536 71.81811523 309.05151367 C69.94170525 310.93328274 68.06001031 312.80964738 66.17773438 314.68554688 C60.23743718 320.6225986 54.4311836 326.58748105 49 333 C47.5867645 334.5448126 46.17059591 336.08695325 44.75 337.625 C39.16561446 343.83302251 34.03513865 350.34412312 29 357 C28.5162793 357.63260742 28.03255859 358.26521484 27.53417969 358.91699219 C16.3949326 373.60021095 7.53355711 389.76048881 1 407 C-1.25293195 404.74706805 -2.03114686 402.58221527 -3.15551758 399.64379883 C-12.99035546 373.94925419 -30.69523009 351.74489583 -49.3671875 331.84375 C-51.3397445 329.71315431 -53.24320816 327.56262239 -55.13354492 325.36157227 C-59.07701889 320.84809745 -63.25357359 316.60213444 -67.49609375 312.37109375 C-68.28846939 311.57776138 -69.08084503 310.78442902 -69.89723206 309.96705627 C-71.56250283 308.30110919 -73.22902029 306.63640744 -74.89672852 304.97290039 C-77.43034622 302.44463866 -79.95858167 299.91108339 -82.48632812 297.37695312 C-84.11426283 295.7496793 -85.74250775 294.12271575 -87.37109375 292.49609375 C-88.490214 291.37393715 -88.490214 291.37393715 -89.63194275 290.22911072 C-93.71172091 286.16725432 -97.88540719 282.2829435 -102.24525452 278.52345276 C-127.89991661 256.25032762 -127.89991661 256.25032762 -130.875 244.5625 C-131.02452904 240.30092242 -130.21470556 238.75527791 -127.9375 235.1875 C-127.18454786 233.95962989 -126.43624212 232.72890414 -125.69140625 231.49609375 C-125.26617676 230.79726074 -124.84094727 230.09842773 -124.40283203 229.37841797 C-121.57625459 224.58612465 -118.99614805 219.65662367 -116.375 214.75 C-115.15639441 212.47908917 -113.93764195 210.20825714 -112.71875 207.9375 C-112.10386719 206.79023438 -111.48898437 205.64296875 -110.85546875 204.4609375 C-107.86752678 198.88763943 -104.87203345 193.31841332 -101.875 187.75 C-101.00174072 186.12723145 -101.00174072 186.12723145 -100.11083984 184.47167969 C-95.94664435 176.7403394 -91.74872252 169.02793848 -87.53637695 161.32275391 C-83.0838691 153.17097925 -78.68031154 144.99321093 -74.28125 136.8125 C-69.83609627 128.54744493 -65.37064177 120.29359283 -60.89697266 112.04394531 C-56.89578413 104.66217067 -52.91408492 97.27005265 -48.9375 89.875 C-44.16820749 81.00726053 -39.36659613 72.15805138 -34.53662109 63.32324219 C-30.68503743 56.27154855 -26.86851004 49.20138267 -23.0625 42.125 C-18.31983228 33.30852767 -13.57391657 24.49386486 -8.8125 15.6875 C-8.00147827 14.18437256 -8.00147827 14.18437256 -7.17407227 12.65087891 C-6.66932373 11.71808105 -6.1645752 10.7852832 -5.64453125 9.82421875 C-5.20471924 9.01041748 -4.76490723 8.19661621 -4.31176758 7.3581543 C-3.87888428 6.57996338 -3.44600098 5.80177246 -3 5 C-2.49170654 4.07550049 -1.98341309 3.15100098 -1.4597168 2.19848633 C-0.97801025 1.47298584 -0.49630371 0.74748535 0 0 Z " fill="#D1C4E9" transform="translate(1835,37)"/>
<path d="M0 0 C4.97140018 4.52947909 8.18387223 10.38472006 11.3125 16.25 C11.81612061 17.18328125 12.31974121 18.1165625 12.83862305 19.078125 C19.52915952 31.64755581 25.60719047 44.52867123 31.78994751 57.35243225 C62.19844837 121.58485073 62.19844837 121.58485073 110.34765625 172.6875 C111.16556641 173.3371875 111.16556641 173.3371875 112 174 C112 174.33 112 174.66 112 175 C111.25242432 175.08451416 110.50484863 175.16902832 109.73461914 175.25610352 C76.69570587 179.1058113 47.05248243 188.92608808 17 203 C15.53771973 203.6808667 15.53771973 203.6808667 14.04589844 204.37548828 C2.17020554 209.92236542 -9.50358468 215.7127563 -20.97021484 222.06201172 C-29.14369423 226.57176865 -37.39077184 230.93222636 -45.67706299 235.23040771 C-47.20119574 236.02240891 -48.72367936 236.81759354 -50.24432373 237.61627197 C-76.20904708 251.24196713 -76.20904708 251.24196713 -86 249 C-88.37109375 246.99609375 -88.37109375 246.99609375 -90.4375 244.4375 C-93.2295881 241.10500776 -96.00812183 237.90747528 -99.125 234.875 C-101.6011362 232.43762915 -103.9380474 229.95989016 -106.1875 227.3125 C-109.44430063 223.51664272 -112.9461273 220.01377824 -116.5 216.5 C-120.53299929 212.51224541 -124.39402474 208.4850508 -128.0625 204.15625 C-130.76030585 201.15385317 -133.63043819 198.33739183 -136.5 195.5 C-140.5329811 191.51223169 -144.39402462 187.48505095 -148.0625 183.15625 C-150.76030585 180.15385317 -153.63043819 177.33739183 -156.5 174.5 C-160.5329811 170.51223169 -164.39402462 166.48505095 -168.0625 162.15625 C-170.76030585 159.15385317 -173.63043819 156.33739183 -176.5 153.5 C-180.5329811 149.51223169 -184.39402462 145.48505095 -188.0625 141.15625 C-191.3036655 137.54914646 -194.79262379 134.18821105 -198.23999023 130.77954102 C-201.70386446 127.33963479 -204.97124934 123.8144615 -208.12890625 120.08984375 C-210.6438345 117.28089466 -213.31835322 114.64891383 -216 112 C-219.26382297 108.77601619 -222.46830119 105.56482179 -225.4375 102.0625 C-228.60009982 98.34042307 -232.02970696 94.93133928 -235.5 91.5 C-239.53298474 87.51223443 -243.39402465 83.48505092 -247.0625 79.15625 C-249.76031925 76.15383825 -252.63061333 73.33758957 -255.5 70.5 C-260.21555335 65.83178219 -264.73426226 61.08778095 -269 56 C-270.14496025 54.66591685 -271.29076036 53.33255394 -272.4375 52 C-273.283125 51.01 -274.12875 50.02 -275 49 C-269.19364856 47.21143173 -263.3663719 46.05656198 -257.39045715 44.98191833 C-255.80538432 44.69252297 -255.80538432 44.69252297 -254.18828982 44.39728123 C-250.65452605 43.75297597 -247.11987406 43.11368433 -243.58520508 42.47436523 C-241.04876748 42.01294976 -238.51238683 41.55122116 -235.97605896 41.08920288 C-230.5183157 40.09550728 -225.06011678 39.10434817 -219.60160255 38.11489677 C-211.70517601 36.68350321 -203.80950725 35.24796535 -195.91402443 33.81137646 C-183.09721494 31.47943904 -170.27987298 29.15044234 -157.4621582 26.82348633 C-145.02350631 24.56533603 -132.58498699 22.30645901 -120.14672852 20.04614258 C-119.38018433 19.90684464 -118.61364015 19.76754669 -117.82386736 19.6240276 C-109.45684379 18.10352085 -101.08988378 16.58266479 -92.72301006 15.06133366 C-91.98790729 14.92767187 -91.25280452 14.79401008 -90.49542591 14.65629794 C-87.55701947 14.12200883 -84.61861416 13.58771355 -81.68021747 13.05337084 C-73.07625388 11.48875937 -64.4720922 9.92524766 -55.86756768 8.36372376 C-49.83685165 7.2692499 -43.80636085 6.17353993 -37.77594948 5.07738876 C-35.29920821 4.62743504 -32.82238335 4.17794116 -30.34547043 3.72893333 C-26.97295838 3.11752101 -23.60074109 2.50450812 -20.22859192 1.89109802 C-18.74743423 1.62320179 -18.74743423 1.62320179 -17.23635417 1.34989351 C-16.33399081 1.18541627 -15.43162745 1.02093902 -14.50191975 0.85147762 C-13.33427569 0.63951116 -13.33427569 0.63951116 -12.14304286 0.42326254 C-10.71869295 0.14194574 -9.30235561 -0.1836381 -7.89831752 -0.55321735 C-4.84586508 -1.27163394 -2.99837181 -0.95947898 0 0 Z " fill="#D1C4E9" transform="translate(401,1223)"/>
<path d="M0 0 C7.8321175 0.9356373 15.57170786 2.32105144 23.32371235 3.76056671 C24.84088356 4.03920056 26.35812069 4.3174757 27.87541771 4.5954237 C31.99602229 5.35129508 36.11569529 6.11213684 40.23522806 6.87382483 C44.62391935 7.68433089 49.01349057 8.4900438 53.4029665 9.29628754 C61.8484212 10.84825666 70.29311635 12.40431845 78.73752356 13.96197599 C89.37740416 15.92450745 100.01800758 17.88310769 110.65867329 19.84137726 C112.09155754 20.10508238 112.09155754 20.10508238 113.55338895 20.37411487 C119.32429109 21.43617125 119.32429109 21.43617125 125.09520382 22.49817008 C130.83377802 23.55422101 136.57225821 24.61078115 142.31067628 25.6676802 C163.35272811 29.54290424 184.39763119 33.40090005 205.45268154 37.20492172 C208.88597759 37.82529468 212.3191 38.44661913 215.75216389 39.06827545 C224.74183322 40.69571166 233.7318019 42.32111315 242.72496128 43.92916584 C246.20697985 44.55335106 249.68785632 45.18371847 253.16841984 45.81596184 C254.73165701 46.09846929 256.29539855 46.37820306 257.85968113 46.65486336 C259.93059677 47.02128214 261.99958225 47.39708541 264.06834126 47.77545929 C265.20629642 47.97951889 266.34425159 48.18357849 267.51669025 48.39382172 C270.15061665 49.07111359 270.15061665 49.07111359 272.15061665 51.07111359 C271.2979018 51.90642609 271.2979018 51.90642609 270.4279604 52.75861359 C266.81608006 56.32828497 263.24437895 59.87999328 259.96311665 63.75861359 C256.55901583 67.73670799 252.86933978 71.39110698 249.15061665 75.07111359 C243.76522724 80.38312381 243.76522724 80.38312381 238.71311665 86.00861359 C234.64987199 90.8200772 230.09235662 95.15288014 225.62180805 99.58039093 C221.94084975 103.23942245 218.42903002 106.94842551 215.0842104 110.91876984 C211.64104577 114.75146419 207.92246698 118.31758168 204.26145649 121.94074249 C201.30167932 124.88160231 198.40350302 127.81509002 195.71311665 131.00861359 C191.64987199 135.8200772 187.09235662 140.15288014 182.62180805 144.58039093 C178.94084975 148.23942245 175.42903002 151.94842551 172.0842104 155.91876984 C168.64104577 159.75146419 164.92246698 163.31758168 161.26145649 166.94074249 C158.30167932 169.88160231 155.40350302 172.81509002 152.71311665 176.00861359 C148.64987199 180.8200772 144.09235662 185.15288014 139.62180805 189.58039093 C135.94084975 193.23942245 132.42903002 196.94842551 129.0842104 200.91876984 C125.64104577 204.75146419 121.92246698 208.31758168 118.26145649 211.94074249 C115.30167932 214.88160231 112.40350302 217.81509002 109.71311665 221.00861359 C105.65718439 225.81141828 101.10874405 230.13693578 96.64597797 234.55622101 C92.75076069 238.42801135 88.97727812 242.34251764 85.44749165 246.55548859 C85.0195229 247.05564484 84.59155415 247.55580109 84.15061665 248.07111359 C83.67495258 248.63056671 83.19928852 249.19001984 82.7092104 249.76642609 C81.15061665 251.07111359 81.15061665 251.07111359 77.46311665 251.19611359 C56.58218964 247.8869334 34.32359127 232.06987529 15.96311665 221.94611359 C-24.93566337 199.46460315 -67.7586541 179.49310801 -114.84938335 176.07111359 C-114.84938335 175.41111359 -114.84938335 174.75111359 -114.84938335 174.07111359 C-113.4079771 172.87189484 -113.4079771 172.87189484 -111.28688335 171.38361359 C-98.03112799 161.29092701 -87.44962918 148.58019152 -77.84938335 135.07111359 C-77.40256207 134.44237335 -76.95574078 133.81363312 -76.49537945 133.16584015 C-56.00452689 103.9995188 -40.33729271 71.1134233 -25.09938335 39.00861359 C-6.66224845 0.25618073 -6.66224845 0.25618073 0 0 Z " fill="#D1C4E9" transform="translate(3266.849383354187,1230.9288864135742)"/>
<path d="M0 0 C0.62003906 0.3403125 1.24007812 0.680625 1.87890625 1.03125 C3.80014822 2.08275943 5.72505912 3.12757616 7.65234375 4.16796875 C9.84862581 5.3699014 12.02928048 6.60093854 14.19140625 7.86328125 C52.74465665 29.74959746 99.72880784 35.02749896 142.90698242 41.10913086 C153.97444809 42.66893195 165.03317531 44.26670142 176.06640625 46.0546875 C177.02296616 46.20535675 177.97952606 46.356026 178.96507263 46.51126099 C196.52170015 49.41851775 196.52170015 49.41851775 203 55 C203.91569089 57.98872901 204.3991489 60.36852405 204.72485352 63.42749023 C204.89567491 64.72280969 204.89567491 64.72280969 205.06994724 66.04429722 C205.44839433 68.96310076 205.78811392 71.88517218 206.12890625 74.80859375 C206.39683952 76.93057215 206.667331 79.05222884 206.94015503 81.17358398 C207.53063857 85.80364556 208.10443125 90.43537306 208.66574097 95.06906128 C209.56790918 102.51241535 210.50584075 109.95096638 211.45141602 117.38891602 C211.78347046 120.00309265 212.11548578 122.61727425 212.44746399 125.23146057 C212.53142691 125.89226425 212.61538983 126.55306793 212.70189708 127.23389596 C213.22568974 131.35871251 213.74625729 135.48392278 214.26447266 139.6094436 C217.27284391 163.55792876 220.43473113 187.48451766 223.6484375 211.40625 C223.82860621 212.74789746 223.82860621 212.74789746 224.01241469 214.11664891 C225.45858546 224.88543166 226.90770381 235.65381641 228.35811526 246.42202872 C230.23331541 260.344818 232.10516272 274.26805636 233.97089601 288.19211757 C234.60474759 292.92189163 235.24049173 297.65140583 235.87781411 302.3807134 C236.26629448 305.26634746 236.65315693 308.15219666 237.03955734 311.0381099 C237.30305714 313.00238381 237.56852023 314.96639403 237.83403873 316.93039608 C238.06651892 318.6706347 238.06651892 318.6706347 238.30369568 320.44602966 C238.43907462 321.45297095 238.57445356 322.45991224 238.7139349 323.49736691 C239 326 239 326 239 329 C234.10832626 328.36404635 230.14899485 326.30349343 225.7890625 324.1328125 C224.99292542 323.74235245 224.19678833 323.3518924 223.37652588 322.94960022 C220.79010987 321.6798951 218.20763341 320.40237874 215.625 319.125 C212.94417151 317.80719949 210.2623288 316.49147809 207.58047485 315.17576599 C205.81204973 314.30793507 204.04396119 313.43941794 202.2762146 312.57020569 C195.82877376 309.4005186 189.36335827 306.27270956 182.875 303.1875 C174.44518453 299.17289391 166.031555 295.125545 157.625 291.0625 C148.58928318 286.69588181 139.54917099 282.33869336 130.5 278 C120.87420072 273.3845843 111.25852858 268.74845664 101.64648438 264.10449219 C92.25728225 259.56852601 82.86011495 255.04940514 73.45751953 250.54125977 C66.04482029 246.98558912 58.63972814 243.41433738 51.23733521 239.83728027 C45.82589836 237.22276485 40.41291227 234.61145903 35 232 C33.95505371 231.49549316 32.91010742 230.99098633 31.83349609 230.47119141 C28.91111032 229.06144731 25.9873192 227.65468787 23.0625 226.25 C22.14944092 225.81099365 21.23638184 225.3719873 20.2956543 224.91967773 C15.47707487 222.61618475 10.63682598 220.37594054 5.7578125 218.203125 C4.23208618 217.5220166 4.23208618 217.5220166 2.67553711 216.82714844 C0.72946685 215.96279368 -1.22010176 215.10625929 -3.17358398 214.25878906 C-4.04055908 213.87432617 -4.90753418 213.48986328 -5.80078125 213.09375 C-6.56559814 212.76052734 -7.33041504 212.42730469 -8.1184082 212.08398438 C-10 211 -10 211 -12 208 C-13.64193421 201.25342115 -12.76344425 194.48777489 -11.87109375 187.69921875 C-11.73473007 186.61734787 -11.59836639 185.53547699 -11.45787048 184.42082214 C-9.92381534 172.70333674 -7.84829766 161.08545584 -5.7272644 149.4624939 C-1.94880232 128.7162514 1.78483905 107.9817848 4 87 C4.09877441 86.13012451 4.19754883 85.26024902 4.29931641 84.36401367 C5.24612453 74.90350016 5.22146089 65.41095381 5.24023438 55.91235352 C5.24989998 52.96796981 5.28099259 50.02429781 5.3125 47.08007812 C5.38778509 33.58381147 4.69163667 20.24817221 0.89941406 7.21850586 C0 4 0 4 0 0 Z " fill="#D1C4E9" transform="translate(2643,2956)"/>
<path d="M0 0 C-0.26554688 1.22332031 -0.53109375 2.44664062 -0.8046875 3.70703125 C-12.51958644 58.94864825 -1.32318635 114.23315322 8.37182617 168.92285156 C8.53903168 169.86872635 8.70623718 170.81460114 8.87850952 171.78913879 C9.19056143 173.5517459 9.50432865 175.31405063 9.82022095 177.07597351 C11.12307125 184.43398232 12.15024475 191.6975435 12.25 199.1875 C12.28867188 200.94126953 12.28867188 200.94126953 12.328125 202.73046875 C11.94153863 206.58252579 11.58249424 208.09708518 9 211 C5.80015491 212.89298567 2.41917577 214.30118722 -1 215.75 C-3.18415286 216.71193086 -5.3663276 217.67836136 -7.546875 218.6484375 C-8.73861328 219.17791992 -9.93035156 219.70740234 -11.15820312 220.25292969 C-17.50818987 223.11374596 -23.74814186 226.20755104 -30.0012207 229.27270508 C-41.11368725 234.71975604 -52.25048959 240.09018413 -63.5 245.25 C-76.55503069 251.24434155 -89.44376641 257.56441197 -102.33911133 263.89343262 C-114.23389306 269.72885084 -126.1606962 275.45179265 -138.20703125 280.96875 C-150.00831713 286.40482998 -161.65326218 292.1571135 -173.31613159 297.88244629 C-185.78148628 303.99917349 -198.2861702 309.99637424 -210.90771484 315.78393555 C-218.30738006 319.18401188 -225.61843815 322.72613285 -232.85375977 326.46386719 C-237.79970228 329 -237.79970228 329 -240 329 C-235.60748465 294.83107148 -231.1060592 260.67875868 -226.46723032 226.54242253 C-225.67516345 220.71117055 -224.88492992 214.87967005 -224.0944519 209.04820251 C-222.7762413 199.32537019 -221.45691296 189.60269013 -220.13671875 179.88012695 C-218.27524391 166.17128927 -216.41592984 152.46215911 -214.55698991 138.75297749 C-213.10350474 128.03448183 -211.6494572 117.31606245 -210.1953125 106.59765625 C-210.04070887 105.45804168 -209.88610524 104.31842711 -209.72681665 103.14427876 C-208.84177837 96.620747 -207.9564542 90.09725415 -207.07069588 83.57382011 C-206.80334172 81.60456841 -206.53606915 79.63530562 -206.26888466 77.66603088 C-205.9041907 74.97821431 -205.53918851 72.29043977 -205.17410278 69.60267639 C-205.06895296 68.82723781 -204.96380314 68.05179923 -204.85546696 67.25286251 C-204.66204552 65.82985978 -204.46547701 64.40727972 -204.26512456 62.98523629 C-204.00405667 61.03037611 -203.79731654 59.06850826 -203.59148979 57.10706234 C-203 54 -203 54 -200.36206055 51.68432617 C-185.84787442 44.41300455 -167.22967586 44.02739881 -151.28237915 41.82485962 C-73.48022143 33.42572791 -73.48022143 33.42572791 -3.86181641 1.34887695 C-2 0 -2 0 0 0 Z " fill="#D1C4E9" transform="translate(1012,2951)"/>
</svg>
